<svg width="1224" height="910" viewBox="0 0 1224 910" fill="none" xmlns="http://www.w3.org/2000/svg">
<g id="background_cloud">
<path id="cloudb1" d="M620.65 880.749C584.537 882.049 565.836 900.791 561 910H906C891.813 893.099 859.248 895.374 844.738 898.624C833.131 872.623 799.061 871.54 783.477 874.248C711.252 809.245 644.832 851.497 620.65 880.749Z" fill="#FFE8C2" fill-opacity="0.54"/>
<path id="cloudb4" d="M916.65 379.749C880.537 381.049 861.836 399.791 857 409H1202C1187.81 392.099 1155.25 394.374 1140.74 397.624C1129.13 371.623 1095.06 370.54 1079.48 373.248C1007.25 308.245 940.832 350.497 916.65 379.749Z" fill="#FFE8C2" fill-opacity="0.54"/>
<path id="cloudb3" d="M41.3224 580.942C16.3056 581.833 3.35047 594.685 0 601H239C229.172 589.411 206.612 590.971 196.561 593.199C188.52 575.37 164.917 574.627 154.122 576.485C104.088 531.911 58.0748 560.884 41.3224 580.942Z" fill="#FFE8C2" fill-opacity="0.54"/>
<path id="cloudb6" d="M990.322 27.9419C965.306 28.8334 952.35 41.6854 949 48H1188C1178.17 36.411 1155.61 37.9709 1145.56 40.1995C1137.52 22.3701 1113.92 21.6272 1103.12 23.4845C1053.09 -21.0891 1007.07 7.88376 990.322 27.9419Z" fill="#FFE8C2" fill-opacity="0.54"/>
<path id="cloudb2" d="M1095.8 689.046C1079.57 689.622 1071.17 697.922 1069 702H1224C1217.63 694.515 1203 695.523 1196.48 696.962C1191.26 685.447 1175.95 684.968 1168.95 686.167C1136.5 657.38 1106.66 676.092 1095.8 689.046Z" fill="#FFE8C2" fill-opacity="0.54"/>
<path id="cloudb5" d="M174.799 217.046C158.575 217.622 150.173 225.922 148 230H303C296.626 222.515 281.995 223.523 275.477 224.962C270.262 213.447 254.955 212.968 247.953 214.167C215.505 185.38 185.664 204.092 174.799 217.046Z" fill="#FFE8C2" fill-opacity="0.54"/>
</g>
</svg>
