<svg width="1564" height="864" viewBox="0 0 1564 864" fill="none" xmlns="http://www.w3.org/2000/svg">
<g id="cloud2">
<path id="cloudb1" d="M239.65 834.749C203.537 836.049 184.836 854.791 180 864H525C510.813 847.099 478.248 849.374 463.738 852.624C452.131 826.623 418.061 825.54 402.477 828.248C330.252 763.245 263.832 805.497 239.65 834.749Z" fill="#2B907D" fill-opacity="0.3"/>
<path id="cloudb1_2" d="M834.65 799.749C798.537 801.049 779.836 819.791 775 829H1120C1105.81 812.099 1073.25 814.374 1058.74 817.624C1047.13 791.623 1013.06 790.54 997.477 793.248C925.252 728.245 858.832 770.497 834.65 799.749Z" fill="#A4E1D5" fill-opacity="0.3"/>
<path id="cloudb4" d="M584.65 294.749C548.537 296.049 529.836 314.791 525 324H870C855.813 307.099 823.248 309.374 808.738 312.624C797.131 286.623 763.061 285.54 747.477 288.248C675.252 223.245 608.832 265.497 584.65 294.749Z" fill="#6EC3B3" fill-opacity="0.3"/>
<path id="cloudb4_2" d="M1272.65 294.749C1236.54 296.049 1217.84 314.791 1213 324H1558C1543.81 307.099 1511.25 309.374 1496.74 312.624C1485.13 286.623 1451.06 285.54 1435.48 288.248C1363.25 223.245 1296.83 265.497 1272.65 294.749Z" fill="#6EC3B3" fill-opacity="0.3"/>
<path id="cloudb3" d="M41.3224 536.942C16.3056 537.833 3.35047 550.685 0 557H239C229.172 545.411 206.612 546.971 196.561 549.199C188.52 531.37 164.917 530.627 154.122 532.485C104.088 487.911 58.0748 516.884 41.3224 536.942Z" fill="#A4E1D5" fill-opacity="0.3"/>
<path id="cloudb3_2" d="M959.322 567.942C934.306 568.833 921.35 581.685 918 588H1157C1147.17 576.411 1124.61 577.971 1114.56 580.199C1106.52 562.37 1082.92 561.627 1072.12 563.485C1022.09 518.911 976.075 547.884 959.322 567.942Z" fill="#6EC3B3" fill-opacity="0.3"/>
<path id="cloudb6" d="M499.322 27.9419C474.306 28.8334 461.35 41.6854 458 48H697C687.172 36.411 664.612 37.9709 654.561 40.1995C646.52 22.3701 622.917 21.6272 612.122 23.4845C562.088 -21.0891 516.075 7.88376 499.322 27.9419Z" fill="#A4E1D5" fill-opacity="0.3"/>
<path id="cloudb2" d="M527.799 575.046C511.575 575.622 503.173 583.922 501 588H656C649.626 580.515 634.995 581.523 628.477 582.962C623.262 571.447 607.955 570.968 600.953 572.167C568.505 543.38 538.664 562.092 527.799 575.046Z" fill="#6EC3B3" fill-opacity="0.3"/>
<path id="cloudb2_2" d="M1363.8 575.046C1347.57 575.622 1339.17 583.922 1337 588H1492C1485.63 580.515 1471 581.523 1464.48 582.962C1459.26 571.447 1443.95 570.968 1436.95 572.167C1404.5 543.38 1374.66 562.092 1363.8 575.046Z" fill="#2B907D" fill-opacity="0.3"/>
<path id="cloudb2_3" d="M1317.8 51.0458C1301.57 51.6215 1293.17 59.9218 1291 64H1446C1439.63 56.5154 1425 57.5229 1418.48 58.9622C1413.26 47.4473 1397.95 46.9676 1390.95 48.1671C1358.5 19.38 1328.66 38.0916 1317.8 51.0458Z" fill="#A4E1D5" fill-opacity="0.3"/>
<path id="cloudb2_4" d="M1402.71 766.703C1382.3 767.427 1371.73 777.869 1369 783H1564C1555.98 773.584 1537.57 774.851 1529.37 776.662C1522.81 762.176 1503.56 761.572 1494.75 763.081C1453.93 726.865 1416.38 750.406 1402.71 766.703Z" fill="#6EC3B3" fill-opacity="0.3"/>
<path id="cloudb5" d="M110.799 215.046C94.5748 215.622 86.1729 223.922 84 228H239C232.626 220.515 217.995 221.523 211.477 222.962C206.262 211.447 190.955 210.968 183.953 212.167C151.505 183.38 121.664 202.092 110.799 215.046Z" fill="#6EC3B3" fill-opacity="0.3"/>
<path id="cloudb5_2" d="M933.799 137.046C917.575 137.622 909.173 145.922 907 150H1062C1055.63 142.515 1041 143.523 1034.48 144.962C1029.26 133.447 1013.95 132.968 1006.95 134.167C974.505 105.38 944.664 124.092 933.799 137.046Z" fill="#2B907D" fill-opacity="0.3"/>
</g>
</svg>
