<svg width="197" height="224" viewBox="0 0 197 224" fill="none" xmlns="http://www.w3.org/2000/svg">
<g id="contact_letter">
<path id="Vector" d="M197 221.782H69.4706V223.308H197V221.782Z" fill="#3F3D56"/>
<path id="Vector_2" d="M132.981 214.005L4.82092 167.974L27.7013 104.267L107.5 84.6965L155.862 150.299L132.981 214.005Z" fill="#2F2E41"/>
<path id="Vector_3" d="M117.455 201.373L21.6809 164.863C46.5442 131.558 57.6626 108.065 57.6707 71.0972L153.445 107.607C131.195 139.214 121.89 162.974 117.455 201.373Z" fill="#F2F2F2"/>
<path id="Vector_4" d="M124.994 112.603L75.3755 93.6882L74.4958 95.9961L124.114 114.911L124.994 112.603Z" fill="#3F3D56"/>
<path id="Vector_5" d="M121.475 121.834L71.8567 102.92L70.977 105.228L120.595 124.142L121.475 121.834Z" fill="#3F3D56"/>
<path id="Vector_6" d="M117.956 131.066L68.3378 112.151L67.458 114.459L117.076 133.374L117.956 131.066Z" fill="#3F3D56"/>
<path id="Vector_7" d="M114.437 140.297L64.8188 121.383L63.9391 123.69L113.557 142.605L114.437 140.297Z" fill="#3F3D56"/>
<path id="Vector_8" d="M110.918 149.529L61.2999 130.614L60.4202 132.922L110.038 151.837L110.918 149.529Z" fill="#3F3D56"/>
<path id="Vector_9" d="M107.399 158.76L57.7811 139.846L56.9014 142.154L106.519 161.068L107.399 158.76Z" fill="#3F3D56"/>
<path id="Vector_10" d="M103.88 167.992L54.2622 149.077L53.3825 151.385L103.001 170.3L103.88 167.992Z" fill="#3F3D56"/>
<path id="Vector_11" d="M100.361 177.223L50.7433 158.309L49.8636 160.616L99.4816 179.531L100.361 177.223Z" fill="#3F3D56"/>
<path id="Vector_12" d="M130.02 222.25L1.86011 176.219L27.7013 104.267L81.8222 155.014L155.862 150.299L130.02 222.25Z" fill="#3F3D56"/>
<path id="Vector_13" d="M64.9007 199.578L0.99707 176.626L16.5678 133.27L17.8383 133.726L2.72375 175.811L65.3568 198.308L64.9007 199.578Z" fill="#6C63FF"/>
<path id="Vector_14" d="M42.1854 153.47L23.4485 146.74L20.7567 154.235L39.4936 160.965L42.1854 153.47Z" fill="#FF4D4D"/>
<path id="Vector_15" d="M122.93 97.0927C124.128 93.9483 118.043 88.7091 109.337 85.3906C100.632 82.072 92.6033 81.9308 91.4047 85.0752C90.2061 88.2195 96.2916 93.4588 104.997 96.7773C113.702 100.096 121.731 100.237 122.93 97.0927Z" fill="#FF4D4D"/>
<path id="Vector_16" d="M136.706 1.19984C133.491 0.20002 130.11 -0.156682 126.757 0.150095C123.404 0.456872 120.144 1.42112 117.163 2.98779C114.183 4.55445 111.54 6.69286 109.386 9.2809C107.232 11.8689 105.608 14.856 104.609 18.0714C100.404 31.5941 111.863 81.0983 111.863 81.0983C111.863 81.0983 149.373 46.821 153.577 33.2983C155.596 26.8045 154.953 19.7745 151.789 13.7549C148.625 7.73525 143.2 3.21906 136.706 1.19984ZM125.487 37.283C123.193 36.5698 121.162 35.1923 119.651 33.3248C118.14 31.4573 117.217 29.1837 116.998 26.7914C116.779 24.3992 117.274 21.9958 118.421 19.8851C119.569 17.7744 121.316 16.0513 123.442 14.9336C125.568 13.8159 127.978 13.3539 130.367 13.606C132.756 13.858 135.017 14.8128 136.863 16.3497C138.709 17.8865 140.058 19.9363 140.74 22.2399C141.421 24.5434 141.404 26.9973 140.691 29.2912C140.217 30.8143 139.448 32.2292 138.428 33.4551C137.408 34.6811 136.156 35.694 134.744 36.4361C133.332 37.1782 131.788 37.635 130.199 37.7803C128.611 37.9256 127.01 37.7566 125.487 37.283Z" fill="#FF4D4D"/>
</g>
</svg>
