<svg width="616" height="487" viewBox="0 0 616 487" fill="none" xmlns="http://www.w3.org/2000/svg">
<g id="contact">
<path id="Vector" d="M444.064 460.712H68.8265V462.306H444.064V460.712Z" fill="#3F3D56"/>
<path id="Vector_2" d="M267.822 241.482C267.822 241.482 259.859 277.318 275.786 270.948C291.713 264.577 282.157 239.889 282.157 239.889L267.822 241.482Z" fill="#FFB9B9"/>
<path id="Vector_3" d="M416.74 253.427C416.74 253.427 435.852 276.522 423.907 281.3C411.962 286.078 405.591 259.798 407.183 257.409C408.776 255.02 416.74 253.427 416.74 253.427Z" fill="#FFB9B9"/>
<path id="Vector_4" d="M353.43 75.4392L350.245 100.126L376.524 109.683L382.099 81.8097L353.43 75.4392Z" fill="#F4AE96"/>
<path id="Vector_5" d="M368.162 99.7282C368.162 99.7282 354.662 93.0634 351.856 87.6357L345.865 93.3573C345.865 93.3573 302.862 89.3754 296.491 110.877C290.12 132.379 295.695 210.423 295.695 210.423C295.695 210.423 286.935 245.464 289.324 246.26C291.713 247.056 321.178 261.391 362.588 253.427C362.588 253.427 380.904 250.242 384.089 252.631C387.275 255.02 382.497 214.405 382.497 214.405C382.497 214.405 414.351 142.732 408.776 133.972C403.202 125.212 378.515 106.895 378.515 106.895L380.108 98.1354C380.108 98.1354 368.959 102.914 368.162 99.7282Z" fill="#0E8F89"/>
<path id="Vector_6" d="M302.862 105.303C302.862 105.303 288.528 112.47 286.138 123.619C283.749 134.768 261.452 227.147 263.841 232.722C266.23 238.296 265.433 245.464 265.433 245.464L286.138 243.075C286.138 243.075 282.157 237.5 284.546 235.111C286.935 232.722 289.324 224.758 287.731 221.573C286.138 218.387 284.546 223.962 293.306 213.609C302.065 203.256 321.974 108.488 302.862 105.303Z" fill="#0E8F89"/>
<path id="Vector_7" d="M403.998 132.379C403.998 132.379 410.767 132.778 412.36 143.927C413.952 155.076 416.74 223.962 416.74 223.962C416.74 223.962 427.092 246.26 423.11 249.446C419.129 252.631 421.518 257.409 421.518 257.409L407.183 261.391L376.126 212.813L403.998 132.379Z" fill="#0E8F89"/>
<path id="Vector_8" d="M291.713 243.075C291.713 243.075 286.935 243.871 286.935 261.391C286.935 278.911 278.175 333.064 283.749 341.824C289.324 350.584 290.12 429.425 290.12 429.425C290.12 429.425 305.251 435.796 317.992 415.09L319.585 403.941L322.77 349.788L335.512 282.097L353.032 356.955C353.032 356.955 350.643 446.945 359.403 446.945C368.162 446.945 384.886 439.778 384.886 439.778C384.886 439.778 388.867 431.814 387.275 427.832C385.682 423.85 384.089 424.647 385.682 421.461C387.275 418.276 389.664 335.453 389.664 335.453C389.664 335.453 386.478 250.242 382.497 247.853C378.515 245.464 291.713 243.075 291.713 243.075Z" fill="#2F2E41"/>
<path id="Vector_9" d="M291.713 426.239L278.971 439.777C278.971 439.777 255.877 461.279 275.786 462.076C295.695 462.872 306.844 449.334 306.844 447.741C306.844 446.148 307.64 440.574 313.214 440.574C318.789 440.574 332.327 427.036 329.141 421.461C325.956 415.886 316.4 413.497 316.4 413.497L291.713 426.239Z" fill="#2F2E41"/>
<path id="Vector_10" d="M360.199 443.759C360.199 443.759 350.643 462.872 356.217 466.854C361.792 470.836 363.384 472.429 363.384 472.429C363.384 472.429 368.162 471.632 367.366 478.8C366.57 485.967 396.035 489.949 397.627 484.374C399.22 478.8 398.424 467.65 395.238 464.465C392.053 461.28 382.497 438.981 382.497 438.981C382.497 438.981 372.144 427.036 360.199 443.759Z" fill="#2F2E41"/>
<path id="Vector_11" d="M616 317.782H488.471V319.308H616V317.782Z" fill="#3F3D56"/>
<path id="Vector_12" d="M139.306 435.366H108.566V466.108H139.306V435.366Z" fill="#CFCCE0"/>
<path id="Vector_13" d="M135.262 462.063H102.903V429.704H135.262V462.063ZM104.521 460.445H133.644V431.322H104.521L104.521 460.445Z" fill="#3F3D56"/>
<path id="Vector_14" d="M172.939 166.757L153.485 174.281L160.748 193.062L180.202 185.538L172.939 166.757Z" fill="#F2F2F2"/>
<path id="Vector_15" d="M176.687 184.057L156.209 191.977L148.563 172.208L169.041 164.287L176.687 184.057ZM156.85 190.593L175.281 183.464L168.4 165.672L149.969 172.8L156.85 190.593Z" fill="#3F3D56"/>
<path id="Vector_16" d="M530.413 395.712L523.631 375.987L504.589 382.534L511.371 402.259L530.413 395.712Z" fill="#F2F2F2"/>
<path id="Vector_17" d="M512.984 398.802L505.845 378.038L525.89 371.147L533.028 391.911L512.984 398.802ZM507.205 378.732L513.629 397.42L531.669 391.217L525.245 372.53L507.205 378.732Z" fill="#3F3D56"/>
<path id="Vector_18" d="M96.7199 297.654C108.126 297.899 117.199 306.165 117.199 306.165C117.199 306.165 107.78 314.034 96.3738 313.789C84.968 313.544 75.8948 305.279 75.8948 305.279C75.8948 305.279 85.3141 297.41 96.7199 297.654Z" fill="#FF4D4D"/>
<path id="Vector_19" d="M39.3771 258.719C49.6818 263.615 61.498 260.295 61.498 260.295C61.498 260.295 56.6069 249.038 46.3023 244.142C35.9976 239.247 24.1814 242.566 24.1814 242.566C24.1814 242.566 29.0724 253.824 39.3771 258.719Z" fill="#FF4D4D"/>
<path id="Vector_20" d="M40.4247 253.854C51.7858 252.816 61.7301 260.01 61.7301 260.01C61.7301 260.01 53.2545 268.888 41.8934 269.926C30.5322 270.964 20.5879 263.77 20.5879 263.77C20.5879 263.77 29.0635 254.893 40.4247 253.854Z" fill="#3F3D56"/>
<path id="Vector_21" d="M82.071 255.821C80.982 267.178 88.1315 277.155 88.1315 277.155C88.1315 277.155 97.0465 268.718 98.1354 257.362C99.2244 246.005 92.0749 236.029 92.0749 236.029C92.0749 236.029 83.16 244.465 82.071 255.821Z" fill="#3F3D56"/>
<path id="Vector_22" d="M135.576 325.471C129.617 335.2 131.667 347.302 131.667 347.302C131.667 347.302 143.379 343.63 149.338 333.901C155.297 324.172 153.247 312.071 153.247 312.071C153.247 312.071 141.535 315.743 135.576 325.471Z" fill="#3F3D56"/>
<path id="Vector_23" d="M118.289 431.248L119.157 430.661C116.096 426.218 114.425 420.967 114.355 415.572C114.38 407.682 118.255 400.383 122.004 393.325C122.699 392.015 123.393 390.709 124.06 389.404C126.86 384.082 129.091 378.48 130.717 372.691C136.531 351.085 130.807 325.594 115.405 304.502C103.187 287.77 84.9743 273.139 59.7256 259.772L59.2354 260.699C84.3402 273.989 102.437 288.52 114.559 305.12C129.775 325.958 135.437 351.116 129.705 372.419C128.098 378.137 125.893 383.67 123.127 388.927C122.462 390.227 121.771 391.528 121.078 392.833C117.27 400.004 113.332 407.419 113.307 415.569C113.376 421.174 115.11 426.631 118.289 431.248Z" fill="#3F3D56"/>
<path id="Vector_24" d="M9.95648 261.15C15.4553 261.15 19.913 256.692 19.913 251.193C19.913 245.694 15.4553 241.236 9.95648 241.236C4.45767 241.236 0 245.694 0 251.193C0 256.692 4.45767 261.15 9.95648 261.15Z" fill="#3F3D56"/>
<path id="Vector_25" d="M551.981 310.005L423.821 263.974L446.701 200.267L526.5 180.697L574.862 246.299L551.981 310.005Z" fill="#2F2E41"/>
<path id="Vector_26" d="M536.455 297.373L440.681 260.863C465.544 227.558 476.663 204.065 476.671 167.097L572.445 203.607C550.195 235.214 540.89 258.974 536.455 297.373Z" fill="#F2F2F2"/>
<path id="Vector_27" d="M543.994 208.603L494.375 189.688L493.496 191.996L543.114 210.911L543.994 208.603Z" fill="#3F3D56"/>
<path id="Vector_28" d="M540.475 217.834L490.857 198.92L489.977 201.228L539.595 220.142L540.475 217.834Z" fill="#3F3D56"/>
<path id="Vector_29" d="M536.956 227.066L487.338 208.151L486.458 210.459L536.076 229.374L536.956 227.066Z" fill="#3F3D56"/>
<path id="Vector_30" d="M533.437 236.297L483.819 217.383L482.939 219.69L532.557 238.605L533.437 236.297Z" fill="#3F3D56"/>
<path id="Vector_31" d="M529.918 245.529L480.3 226.614L479.42 228.922L529.038 247.837L529.918 245.529Z" fill="#3F3D56"/>
<path id="Vector_32" d="M526.399 254.76L476.781 235.846L475.901 238.154L525.519 257.068L526.399 254.76Z" fill="#3F3D56"/>
<path id="Vector_33" d="M522.88 263.992L473.262 245.077L472.382 247.385L522.001 266.3L522.88 263.992Z" fill="#3F3D56"/>
<path id="Vector_34" d="M519.361 273.223L469.743 254.309L468.864 256.616L518.482 275.531L519.361 273.223Z" fill="#3F3D56"/>
<path id="Vector_35" d="M549.02 318.25L420.86 272.219L446.701 200.267L500.822 251.014L574.862 246.299L549.02 318.25Z" fill="#3F3D56"/>
<path id="Vector_36" d="M483.901 295.578L419.997 272.626L435.568 229.27L436.838 229.726L421.724 271.811L484.357 294.308L483.901 295.578Z" fill="#6C63FF"/>
<path id="Vector_37" d="M461.185 249.47L442.448 242.74L439.757 250.235L458.494 256.965L461.185 249.47Z" fill="#FF4D4D"/>
<path id="Vector_38" d="M249.337 461.28L149.03 461.226L149.817 404.912L199.667 427.318L250.124 406.315L249.337 461.28Z" fill="#3F3D56"/>
<path id="Vector_39" d="M171.681 435.728L157.016 435.523L156.934 441.389L171.599 441.594L171.681 435.728Z" fill="#FF4D4D"/>
<path id="Vector_40" d="M250.46 406.238L199.758 432.087L149.554 406.238V404.747H250.46V406.238Z" fill="#FF4D4D"/>
<path id="Vector_41" d="M541.93 193.093C543.128 189.948 537.043 184.709 528.337 181.39C519.632 178.072 511.603 177.931 510.405 181.075C509.206 184.219 515.292 189.459 523.997 192.777C532.702 196.096 540.731 196.237 541.93 193.093Z" fill="#FF4D4D"/>
<path id="Vector_42" d="M555.706 97.2C552.491 96.2001 549.11 95.8434 545.757 96.1502C542.404 96.457 539.144 97.4212 536.163 98.9879C533.183 100.555 530.54 102.693 528.386 105.281C526.232 107.869 524.608 110.856 523.609 114.071C519.404 127.594 530.863 177.098 530.863 177.098C530.863 177.098 568.373 142.821 572.577 129.298C574.596 122.805 573.953 115.775 570.789 109.755C567.625 103.735 562.2 99.2192 555.706 97.2ZM544.487 133.283C542.193 132.57 540.162 131.192 538.651 129.325C537.14 127.457 536.217 125.184 535.998 122.792C535.779 120.399 536.274 117.996 537.421 115.885C538.569 113.775 540.316 112.051 542.442 110.934C544.568 109.816 546.978 109.354 549.367 109.606C551.756 109.858 554.017 110.813 555.863 112.35C557.709 113.887 559.058 115.936 559.74 118.24C560.421 120.544 560.404 122.997 559.691 125.291C559.217 126.814 558.448 128.229 557.428 129.455C556.408 130.681 555.156 131.694 553.744 132.436C552.332 133.178 550.788 133.635 549.199 133.78C547.611 133.926 546.01 133.757 544.487 133.283Z" fill="#FF4D4D"/>
<g id="Group 11">
<g id="Group 9">
<path id="Vector 13" d="M357.84 24.8106C352.499 30.6717 351.092 41.2188 350.245 45.0356C350.842 45.7198 351.62 46.9621 351.878 48.0466C352.137 49.1312 352.383 49.6587 352.109 52.6432C351.834 55.6278 350.597 60.8349 350.061 65.3497C349.526 69.8645 349.764 70.4902 350.354 73.5362C350.974 76.7426 352.93 82.6178 354.006 84.2022C355.082 85.7865 357.447 89.8053 358.986 90.7446C361.775 92.4472 364.766 94.2356 368.173 94.5418C372.404 94.922 374.326 93.8964 375.43 93.3767C376.533 92.857 378.715 91.7091 381.52 89.5436L381.651 89.4426C384.058 87.5854 389.368 83.4873 390.249 81.5328C390.966 79.9401 392.779 75.9309 393.577 73.8931C394.704 70.7484 396.558 65.2427 397.4 64.4925C398.452 63.5547 401.194 59.4084 402.182 57.4955C403.17 55.5827 405.53 45.3968 403.921 39.666C402.795 35.6522 400.358 31.0893 398.932 28.5436C397.506 25.998 396.43 25.017 392.954 21.5467C391.596 20.363 389.58 18.5146 386.195 16.7269C384.625 15.8978 379.966 14.8344 376.203 12.3836C374.329 11.1628 372.213 8.06968 372.132 6.82111C370.569 7.9055 368.024 10.7336 367.235 11.6203C366.247 12.7286 363.519 15.6217 362.805 16.7626C362.233 17.6753 360.417 21.0501 359.958 22.0842L357.84 24.8106Z" fill="#28241C"/>
</g>
</g>
<path id="Vector 15" d="M356.132 40.1095C355.647 41.0386 354.319 44.9898 353.715 46.8492C353.405 48.1331 352.737 50.9056 352.548 51.7248C352.359 52.5441 352.053 54.6951 351.923 55.6683C351.294 58.9137 350.027 65.4319 349.996 65.542C349.965 65.652 349.868 68.8386 349.824 70.4181C350.046 71.6463 350.535 74.2156 350.716 74.6682C350.942 75.2339 352.543 78.3532 352.884 78.9037L352.884 78.904C353.225 79.455 354.627 81.7175 354.979 82.4208C355.332 83.1242 357.662 86.0146 358.397 86.7335C359.133 87.4524 361.461 88.477 362.505 89.0135C363.904 89.7328 366.656 90.3612 368.262 90.7443C369.867 91.1274 370.929 90.7033 371.95 90.8076C372.702 90.8845 374.735 90.3507 376.373 89.6485C377.683 89.0868 379.454 88.7331 380.785 88.1377C382.117 87.5424 382.936 87.1913 383.845 86.7179C384.754 86.2446 387.951 83.174 388.465 82.731C388.978 82.288 389.486 80.6985 389.833 80.2554C390.111 79.901 391.423 75.8387 392.044 73.8519L394.969 65.5227C395.454 64.2083 396.484 61.329 396.726 60.3264C397.027 59.0731 397.56 55.6493 397.698 53.9985C397.836 52.3477 397.968 49.7491 397.925 48.5415C397.881 47.3339 398.412 42.1675 398.506 41.4491C398.6 40.7307 398.323 38.2083 391.815 34.062C385.308 29.9156 378.742 28.8875 375.29 27.9989C371.837 27.1103 366.443 28.3758 363.987 29.2304C361.532 30.085 360.527 31.4754 359.802 33.0495C359.078 34.6235 359.003 36.2438 358.092 37.1146C357.18 37.9853 356.74 38.9481 356.132 40.1095Z" fill="#F7B996"/>
</g>
</svg>
