<svg width="386" height="239" viewBox="0 0 386 239" fill="none" xmlns="http://www.w3.org/2000/svg">
<g id="contact_box">
<path id="Vector" d="M24.939 2.75706L5.48474 10.2812L12.7482 29.0623L32.2025 21.5381L24.939 2.75706Z" fill="#F2F2F2"/>
<path id="Vector_2" d="M28.6869 20.0569L8.20874 27.9771L0.562988 8.20754L21.0411 0.287354L28.6869 20.0569ZM8.85034 26.5926L27.2807 19.4644L20.3995 1.67182L1.96917 8.8L8.85034 26.5926Z" fill="#3F3D56"/>
<path id="Vector_3" d="M382.413 231.713L375.631 211.987L356.589 218.534L363.371 238.259L382.413 231.713Z" fill="#F2F2F2"/>
<path id="Vector_4" d="M364.984 234.802L357.845 214.038L377.89 207.147L385.028 227.911L364.984 234.802ZM359.205 214.732L365.629 233.42L383.669 227.217L377.245 208.53L359.205 214.732Z" fill="#3F3D56"/>
</g>
</svg>
