<svg width="56" height="54" viewBox="0 0 56 54" fill="none" xmlns="http://www.w3.org/2000/svg">
<g id="Github">
<path id="Fill 51" fill-rule="evenodd" clip-rule="evenodd" d="M27.6083 0C12.3627 0 0 12.3616 0 27.6117C0 39.8115 7.91063 50.1617 18.8803 53.8128C20.26 54.0684 20.7666 53.2138 20.7666 52.4845C20.7666 51.826 20.741 49.6509 20.7291 47.3437C13.0485 49.014 11.4277 44.0858 11.4277 44.0858C10.1719 40.8942 8.36233 40.0456 8.36233 40.0456C5.85742 38.3318 8.55114 38.367 8.55114 38.367C11.3235 38.5613 12.7833 41.2125 12.7833 41.2125C15.2457 45.4338 19.2419 44.2134 20.8174 43.5078C21.0651 41.7237 21.7806 40.5046 22.5702 39.8156C16.438 39.1174 9.99173 36.7497 9.99173 26.1695C9.99173 23.1549 11.0702 20.6917 12.8363 18.758C12.5497 18.0621 11.6047 15.2542 13.1038 11.4508C13.1038 11.4508 15.4221 10.7087 20.698 14.2812C22.9003 13.6694 25.2621 13.3625 27.6083 13.352C29.9546 13.3625 32.3182 13.6694 34.5246 14.2812C39.7941 10.7087 42.1093 11.4508 42.1093 11.4508C43.612 15.2542 42.6666 18.0621 42.3799 18.758C44.1501 20.6917 45.2213 23.1549 45.2213 26.1695C45.2213 36.7749 38.7627 39.11 32.615 39.7936C33.6052 40.6505 34.4876 42.3309 34.4876 44.907C34.4876 48.6011 34.4556 51.5746 34.4556 52.4845C34.4556 53.2193 34.9525 54.0803 36.352 53.8091C47.3157 50.1539 55.2162 39.8073 55.2162 27.6117C55.2162 12.3616 42.8554 0 27.6083 0Z" fill="#6F6F6F"/>
<path id="Fill 52" fill-rule="evenodd" clip-rule="evenodd" d="M10.4567 39.6446C10.3959 39.7822 10.1801 39.8229 9.98349 39.7287C9.78324 39.6386 9.67078 39.4516 9.7357 39.314C9.79513 39.1727 10.0114 39.1338 10.2112 39.2276C10.4119 39.3181 10.5262 39.5069 10.4567 39.6446Z" fill="#6F6F6F"/>
<path id="Fill 53" fill-rule="evenodd" clip-rule="evenodd" d="M11.5749 40.8919C11.4432 41.014 11.1858 40.9573 11.0112 40.7644C10.8306 40.5719 10.7967 40.3144 10.9302 40.1905C11.066 40.0684 11.3156 40.1256 11.4967 40.3181C11.6773 40.5129 11.7125 40.7685 11.5749 40.8919Z" fill="#6F6F6F"/>
<path id="Fill 54" fill-rule="evenodd" clip-rule="evenodd" d="M12.6636 42.4822C12.4944 42.5998 12.2178 42.4896 12.0468 42.244C11.8777 41.9985 11.8777 41.704 12.0505 41.586C12.2219 41.4681 12.4944 41.5742 12.6677 41.8179C12.8364 42.0671 12.8364 42.362 12.6636 42.4822Z" fill="#6F6F6F"/>
<path id="Fill 55" fill-rule="evenodd" clip-rule="evenodd" d="M14.1549 44.0186C14.0035 44.1855 13.6812 44.1407 13.4453 43.9129C13.2039 43.6903 13.1367 43.3743 13.2885 43.2074C13.4417 43.0401 13.7658 43.0872 14.0035 43.313C14.2431 43.5353 14.3163 43.8535 14.1549 44.0186Z" fill="#6F6F6F"/>
<path id="Fill 56" fill-rule="evenodd" clip-rule="evenodd" d="M16.2122 44.9107C16.1454 45.1269 15.835 45.2253 15.5223 45.1333C15.21 45.0387 15.0057 44.7854 15.0688 44.5668C15.1337 44.3492 15.4455 44.2468 15.7605 44.3451C16.0723 44.4393 16.2771 44.6907 16.2122 44.9107Z" fill="#6F6F6F"/>
<path id="Fill 57" fill-rule="evenodd" clip-rule="evenodd" d="M18.4715 45.0762C18.4793 45.3039 18.2142 45.4927 17.8859 45.4964C17.5558 45.5042 17.2888 45.3199 17.2852 45.0958C17.2852 44.8659 17.5444 44.6788 17.8745 44.6734C18.2027 44.6669 18.4715 44.8498 18.4715 45.0762Z" fill="#6F6F6F"/>
<path id="Fill 58" fill-rule="evenodd" clip-rule="evenodd" d="M20.5742 44.7181C20.6135 44.9404 20.3854 45.1685 20.0594 45.2289C19.7389 45.2879 19.4422 45.1507 19.4015 44.9303C19.3618 44.7026 19.594 44.4744 19.914 44.4154C20.2405 44.3587 20.5326 44.4923 20.5742 44.7181Z" fill="#6F6F6F"/>
</g>
</svg>
