<svg width="55" height="55" viewBox="0 0 55 55" fill="none" xmlns="http://www.w3.org/2000/svg">
<g id="LinkedIN">
<path id="Combined Shape" fill-rule="evenodd" clip-rule="evenodd" d="M27.5379 0.358582C12.7188 0.358582 0.705566 12.3718 0.705566 27.1909C0.705566 42.01 12.7188 54.0233 27.5379 54.0233C42.357 54.0233 54.3703 42.01 54.3703 27.1909C54.3703 12.3718 42.357 0.358582 27.5379 0.358582ZM13.5869 22.5823H19.6677V40.8526H13.5869V22.5823ZM20.0682 16.9306C20.0288 15.1392 18.7477 13.7748 16.6675 13.7748C14.5873 13.7748 13.2274 15.1392 13.2274 16.9306C13.2274 18.6849 14.5471 20.0886 16.5886 20.0886H16.6275C18.7477 20.0886 20.0682 18.6849 20.0682 16.9306ZM34.5961 22.1533C38.5976 22.1533 41.5974 24.7651 41.5974 30.377L41.5972 40.8526H35.5166V31.078C35.5166 28.6228 34.6367 26.9474 32.4354 26.9474C30.7555 26.9474 29.7548 28.0769 29.3153 29.1677C29.1546 29.5587 29.1151 30.1034 29.1151 30.6494V40.8531H23.0336C23.0336 40.8531 23.1137 24.2972 23.0336 22.5828H29.1151V25.1706C29.9222 23.9266 31.3676 22.1533 34.5961 22.1533Z" fill="#6F6F6F"/>
</g>
</svg>
