<svg width="51" height="52" viewBox="0 0 51 52" fill="none" xmlns="http://www.w3.org/2000/svg">
<g id="Medium">
<path id="Combined Shape" fill-rule="evenodd" clip-rule="evenodd" d="M0.0524902 25.5496C0.0524902 11.4808 11.4575 0.0758057 25.5263 0.0758057C39.595 0.0758057 51 11.4808 51 25.5496C51 39.6183 39.595 51.0233 25.5263 51.0233C11.4575 51.0233 0.0524902 39.6183 0.0524902 25.5496ZM21.4297 18.6896L13.2738 14.6599C13.2041 14.6254 13.1375 14.6091 13.0774 14.6091C12.9918 14.6091 12.9194 14.6424 12.8685 14.7031C12.8186 14.7625 12.7894 14.8484 12.7894 14.9558V32.2551C12.7894 32.5496 13.0074 32.8981 13.2738 33.0298L20.8108 36.7536C20.9155 36.8054 21.0153 36.8299 21.1054 36.8299C21.3594 36.8299 21.5375 36.6357 21.5375 36.3098V18.862C21.5375 18.7891 21.4958 18.7222 21.4297 18.6896ZM38.3063 36.7479L30.9825 33.1294L39.033 20.2022V36.304C39.033 36.7456 38.706 36.9454 38.3063 36.7479ZM22.3107 19.9844V28.8501L30.2857 32.7904L22.3107 19.9844ZM30.528 14.5403L38.8413 18.6477C38.9449 18.6989 38.9817 18.8267 38.9211 18.9242L30.7397 32.0615L25.0197 22.8766L30.1438 14.6485C30.1983 14.5611 30.2989 14.5109 30.4 14.5109C30.4027 14.5109 30.4053 14.5117 30.4081 14.5118C30.4491 14.5129 30.4902 14.5216 30.528 14.5403Z" fill="#6F6F6F"/>
</g>
</svg>
