<svg width="1920" height="1080" viewBox="0 0 1920 1080" fill="none" xmlns="http://www.w3.org/2000/svg">
<g id="notfound">
<g id="background">
<rect id="Rectangle 115" width="1920" height="1080" fill="#FFC86B"/>
<rect id="Rectangle 116" x="1860" width="60" height="1080" fill="#E28243"/>
</g>
<g id="Group 14">
<path id="Vector 38" d="M526.931 474.751C533.177 494.74 548.273 521.598 555.039 532.529H614.379V474.751C615.42 454.451 614.691 408.853 603.448 388.865C589.394 363.88 567.47 364.197 555.039 365.442C547.068 366.24 533.875 372.472 526.931 381.058C521.723 387.497 519.123 402.919 519.123 410.727C519.123 418.535 519.123 449.766 526.931 474.751Z" fill="#147B67"/>
<path id="Vector 39" d="M597.922 528.149C590.114 525.026 587.703 511.964 591.675 506.287C596.36 498.479 633.046 448.082 639.21 443.289C646.568 437.566 657.261 439.14 665.069 446.948C672.053 453.931 676 464.125 676 473.495C676 482.864 663.509 495.355 658.823 500.04L658.823 500.041C655.075 503.789 635.399 520.341 626.03 528.149C619.263 529.19 604.168 530.648 597.922 528.149Z" fill="#6EC3B3"/>
<path id="Vector 37" d="M541.818 665.797L520.159 543.064C519.619 540.003 521.974 537.195 525.083 537.195H656.618C659.796 537.195 662.168 540.122 661.509 543.231L635.519 665.964C635.029 668.275 632.989 669.928 630.627 669.928H546.742C544.315 669.928 542.239 668.187 541.818 665.797Z" fill="#E2A743"/>
<rect id="Rectangle 62" x="516" y="527.825" width="146.787" height="28.1082" fill="#C0851F"/>
</g>
<path id="Oops..." d="M819.6 407.72C824.88 407.72 829.653 408.947 833.92 411.4C838.24 413.853 841.627 417.293 844.08 421.72C846.587 426.093 847.84 431.053 847.84 436.6C847.84 442.147 846.587 447.133 844.08 451.56C841.627 455.987 838.24 459.427 833.92 461.88C829.653 464.333 824.88 465.56 819.6 465.56C814.32 465.56 809.52 464.333 805.2 461.88C800.933 459.427 797.547 455.987 795.04 451.56C792.587 447.133 791.36 442.147 791.36 436.6C791.36 431.053 792.587 426.093 795.04 421.72C797.547 417.293 800.933 413.853 805.2 411.4C809.52 408.947 814.32 407.72 819.6 407.72ZM819.6 418.12C816.293 418.12 813.387 418.867 810.88 420.36C808.373 421.853 806.4 424.013 804.96 426.84C803.573 429.613 802.88 432.867 802.88 436.6C802.88 440.333 803.573 443.613 804.96 446.44C806.4 449.213 808.373 451.347 810.88 452.84C813.387 454.333 816.293 455.08 819.6 455.08C822.907 455.08 825.813 454.333 828.32 452.84C830.827 451.347 832.773 449.213 834.16 446.44C835.6 443.613 836.32 440.333 836.32 436.6C836.32 432.867 835.6 429.613 834.16 426.84C832.773 424.013 830.827 421.853 828.32 420.36C825.813 418.867 822.907 418.12 819.6 418.12ZM876.803 420.12C881.123 420.12 884.99 421.027 888.403 422.84C891.87 424.653 894.59 427.293 896.563 430.76C898.536 434.173 899.523 438.2 899.523 442.84C899.523 447.48 898.536 451.507 896.563 454.92C894.59 458.333 891.87 460.973 888.403 462.84C884.99 464.653 881.123 465.56 876.803 465.56C872.483 465.56 868.59 464.653 865.123 462.84C861.71 460.973 859.016 458.333 857.043 454.92C855.07 451.507 854.083 447.48 854.083 442.84C854.083 438.2 855.07 434.173 857.043 430.76C859.016 427.293 861.71 424.653 865.123 422.84C868.59 421.027 872.483 420.12 876.803 420.12ZM876.803 429.88C873.656 429.88 870.99 431 868.803 433.24C866.616 435.427 865.523 438.627 865.523 442.84C865.523 447.053 866.616 450.28 868.803 452.52C870.99 454.707 873.656 455.8 876.803 455.8C879.95 455.8 882.616 454.707 884.803 452.52C886.99 450.28 888.083 447.053 888.083 442.84C888.083 438.627 886.99 435.427 884.803 433.24C882.616 431 879.95 429.88 876.803 429.88ZM933.975 420.12C937.708 420.12 941.068 421.027 944.055 422.84C947.042 424.653 949.362 427.293 951.015 430.76C952.722 434.173 953.575 438.2 953.575 442.84C953.575 447.48 952.722 451.533 951.015 455C949.362 458.413 947.042 461.027 944.055 462.84C941.068 464.653 937.708 465.56 933.975 465.56C930.242 465.56 927.042 464.68 924.375 462.92C921.762 461.107 919.895 458.707 918.775 455.72V486.12H907.495V420.68H918.775V429.88C919.895 426.893 921.762 424.52 924.375 422.76C927.042 421 930.242 420.12 933.975 420.12ZM930.455 429.96C927.042 429.96 924.215 431.133 921.975 433.48C919.788 435.773 918.695 438.893 918.695 442.84C918.695 446.733 919.788 449.853 921.975 452.2C924.215 454.493 927.042 455.64 930.455 455.64C933.975 455.64 936.802 454.52 938.935 452.28C941.068 449.987 942.135 446.84 942.135 442.84C942.135 438.84 941.068 435.693 938.935 433.4C936.802 431.107 933.975 429.96 930.455 429.96ZM976.838 420.12C982.224 420.12 986.544 421.48 989.798 424.2C993.051 426.92 995.078 430.547 995.878 435.08H985.318C984.891 432.947 983.931 431.24 982.438 429.96C980.944 428.68 978.998 428.04 976.598 428.04C974.678 428.04 973.184 428.493 972.118 429.4C971.051 430.307 970.518 431.533 970.518 433.08C970.518 434.307 970.944 435.293 971.798 436.04C972.651 436.787 973.718 437.373 974.998 437.8C976.278 438.227 978.118 438.733 980.518 439.32C983.878 440.067 986.598 440.867 988.678 441.72C990.811 442.52 992.624 443.827 994.118 445.64C995.664 447.4 996.438 449.8 996.438 452.84C996.438 456.627 994.944 459.693 991.958 462.04C989.024 464.387 985.051 465.56 980.038 465.56C974.278 465.56 969.664 464.28 966.198 461.72C962.731 459.107 960.624 455.4 959.878 450.6H970.678C970.944 452.787 971.904 454.52 973.558 455.8C975.211 457.027 977.371 457.64 980.038 457.64C981.958 457.64 983.424 457.187 984.438 456.28C985.451 455.32 985.958 454.093 985.958 452.6C985.958 451.32 985.504 450.28 984.598 449.48C983.744 448.68 982.651 448.067 981.318 447.64C980.038 447.213 978.198 446.707 975.798 446.12C972.491 445.373 969.798 444.627 967.718 443.88C965.691 443.08 963.931 441.827 962.438 440.12C960.998 438.413 960.278 436.067 960.278 433.08C960.278 429.24 961.744 426.12 964.678 423.72C967.611 421.32 971.664 420.12 976.838 420.12ZM1014.2 453.24V465H1002.04V453.24H1014.2ZM1031.07 453.24V465H1018.91V453.24H1031.07ZM1047.95 453.24V465H1035.79V453.24H1047.95Z" fill="#2F292D"/>
<path id="We can&#226;&#128;&#153;t find the page you are looking for. May be the page is moved or deleted." d="M820.9 519.325L814.635 544H810.75L805.045 523.84L799.34 544H795.455L789.155 519.325H792.69L797.415 540.29L803.26 519.325H806.795L812.64 540.22L817.4 519.325H820.9ZM842.307 533.325C842.307 534.002 842.26 534.585 842.167 535.075H826.802C826.872 537.268 827.49 538.913 828.657 540.01C829.847 541.107 831.294 541.655 832.997 541.655C834.537 541.655 835.82 541.27 836.847 540.5C837.897 539.707 838.539 538.657 838.772 537.35H842.167C841.934 538.68 841.409 539.87 840.592 540.92C839.799 541.97 838.76 542.787 837.477 543.37C836.194 543.953 834.747 544.245 833.137 544.245C831.294 544.245 829.66 543.848 828.237 543.055C826.814 542.262 825.694 541.13 824.877 539.66C824.084 538.167 823.687 536.417 823.687 534.41C823.687 532.403 824.084 530.653 824.877 529.16C825.694 527.667 826.814 526.523 828.237 525.73C829.66 524.937 831.294 524.54 833.137 524.54C835.004 524.54 836.625 524.937 838.002 525.73C839.402 526.523 840.464 527.585 841.187 528.915C841.934 530.245 842.307 531.715 842.307 533.325ZM839.087 533.535C839.157 532.112 838.924 530.922 838.387 529.965C837.85 529.008 837.115 528.297 836.182 527.83C835.249 527.363 834.234 527.13 833.137 527.13C831.387 527.13 829.917 527.678 828.727 528.775C827.537 529.848 826.895 531.435 826.802 533.535H839.087ZM863.625 524.54C866.075 524.54 868.105 525.193 869.715 526.5C871.325 527.807 872.317 529.557 872.69 531.75H869.33C869.097 530.373 868.455 529.3 867.405 528.53C866.379 527.737 865.095 527.34 863.555 527.34C862.435 527.34 861.409 527.597 860.475 528.11C859.565 528.623 858.83 529.417 858.27 530.49C857.71 531.54 857.43 532.847 857.43 534.41C857.43 535.973 857.71 537.292 858.27 538.365C858.83 539.415 859.565 540.197 860.475 540.71C861.409 541.223 862.435 541.48 863.555 541.48C865.095 541.48 866.379 541.083 867.405 540.29C868.455 539.497 869.097 538.412 869.33 537.035H872.69C872.317 539.252 871.325 541.013 869.715 542.32C868.105 543.603 866.075 544.245 863.625 544.245C861.782 544.245 860.149 543.848 858.725 543.055C857.302 542.262 856.182 541.13 855.365 539.66C854.572 538.167 854.175 536.417 854.175 534.41C854.175 532.403 854.572 530.653 855.365 529.16C856.182 527.667 857.302 526.523 858.725 525.73C860.149 524.937 861.782 524.54 863.625 524.54ZM884.734 524.54C886.6 524.54 888.175 525.007 889.459 525.94C890.765 526.873 891.675 528.122 892.189 529.685V524.785H895.374V544H892.189V539.1C891.675 540.663 890.765 541.912 889.459 542.845C888.175 543.778 886.6 544.245 884.734 544.245C883.03 544.245 881.514 543.848 880.184 543.055C878.854 542.262 877.804 541.13 877.034 539.66C876.287 538.167 875.914 536.417 875.914 534.41C875.914 532.403 876.287 530.653 877.034 529.16C877.804 527.667 878.854 526.523 880.184 525.73C881.514 524.937 883.03 524.54 884.734 524.54ZM885.644 527.375C883.684 527.375 882.109 528.005 880.919 529.265C879.752 530.502 879.169 532.217 879.169 534.41C879.169 536.603 879.752 538.33 880.919 539.59C882.109 540.827 883.684 541.445 885.644 541.445C886.904 541.445 888.024 541.153 889.004 540.57C890.007 539.987 890.789 539.17 891.349 538.12C891.909 537.047 892.189 535.81 892.189 534.41C892.189 533.01 891.909 531.773 891.349 530.7C890.789 529.627 890.007 528.81 889.004 528.25C888.024 527.667 886.904 527.375 885.644 527.375ZM910.558 524.47C912.798 524.47 914.606 525.193 915.983 526.64C917.359 528.063 918.048 530.128 918.048 532.835V544H914.863V533.115C914.863 531.202 914.373 529.732 913.393 528.705C912.413 527.678 911.083 527.165 909.403 527.165C907.653 527.165 906.253 527.737 905.203 528.88C904.153 530 903.628 531.645 903.628 533.815V544H900.443V524.785H903.628V529.335C904.118 527.772 904.981 526.57 906.218 525.73C907.478 524.89 908.924 524.47 910.558 524.47ZM924.928 516.42C925.185 517.54 925.313 518.613 925.313 519.64C925.313 520.947 925.01 521.938 924.403 522.615C923.82 523.268 922.945 523.595 921.778 523.595V522.16C922.385 522.16 922.816 522.008 923.073 521.705C923.33 521.378 923.458 520.888 923.458 520.235V519.43H921.708V516.42H924.928ZM938.324 541.2V544H935.944C933.984 544 932.514 543.533 931.534 542.6C930.577 541.667 930.099 540.103 930.099 537.91V527.55H927.229V524.785H930.099V519.99H933.319V524.785H938.289V527.55H933.319V537.98C933.319 539.217 933.54 540.068 933.984 540.535C934.45 540.978 935.244 541.2 936.364 541.2H938.324ZM959.363 520.235C957.659 520.212 956.469 520.503 955.793 521.11C955.139 521.717 954.813 522.767 954.813 524.26V524.785H959.363V527.585H954.813V544H951.628V527.585H948.863V524.785H951.628V524.015C951.628 519.418 954.206 517.225 959.363 517.435V520.235ZM962.261 519.15C962.261 518.567 962.459 518.1 962.856 517.75C963.252 517.377 963.777 517.19 964.431 517.19C965.084 517.19 965.609 517.377 966.006 517.75C966.402 518.1 966.601 518.567 966.601 519.15C966.601 519.733 966.402 520.212 966.006 520.585C965.609 520.935 965.084 521.11 964.431 521.11C963.777 521.11 963.252 520.935 962.856 520.585C962.459 520.212 962.261 519.733 962.261 519.15ZM966.006 524.785V544H962.821V524.785H966.006ZM981.241 524.47C983.481 524.47 985.29 525.193 986.666 526.64C988.043 528.063 988.731 530.128 988.731 532.835V544H985.546V533.115C985.546 531.202 985.056 529.732 984.076 528.705C983.096 527.678 981.766 527.165 980.086 527.165C978.336 527.165 976.936 527.737 975.886 528.88C974.836 530 974.311 531.645 974.311 533.815V544H971.126V524.785H974.311V529.335C974.801 527.772 975.665 526.57 976.901 525.73C978.161 524.89 979.608 524.47 981.241 524.47ZM1001.49 524.54C1003.36 524.54 1004.93 525.007 1006.22 525.94C1007.52 526.873 1008.43 528.122 1008.95 529.685V518.1H1012.13V544H1008.95V539.1C1008.43 540.663 1007.52 541.912 1006.22 542.845C1004.93 543.778 1003.36 544.245 1001.49 544.245C999.788 544.245 998.272 543.848 996.942 543.055C995.612 542.262 994.562 541.13 993.792 539.66C993.045 538.167 992.672 536.417 992.672 534.41C992.672 532.403 993.045 530.653 993.792 529.16C994.562 527.667 995.612 526.523 996.942 525.73C998.272 524.937 999.788 524.54 1001.49 524.54ZM1002.4 527.375C1000.44 527.375 998.867 528.005 997.677 529.265C996.51 530.502 995.927 532.217 995.927 534.41C995.927 536.603 996.51 538.33 997.677 539.59C998.867 540.827 1000.44 541.445 1002.4 541.445C1003.66 541.445 1004.78 541.153 1005.76 540.57C1006.76 539.987 1007.55 539.17 1008.11 538.12C1008.67 537.047 1008.95 535.81 1008.95 534.41C1008.95 533.01 1008.67 531.773 1008.11 530.7C1007.55 529.627 1006.76 528.81 1005.76 528.25C1004.78 527.667 1003.66 527.375 1002.4 527.375ZM1035.02 541.2V544H1032.64C1030.68 544 1029.21 543.533 1028.23 542.6C1027.27 541.667 1026.79 540.103 1026.79 537.91V527.55H1023.92V524.785H1026.79V519.99H1030.01V524.785H1034.98V527.55H1030.01V537.98C1030.01 539.217 1030.23 540.068 1030.68 540.535C1031.14 540.978 1031.94 541.2 1033.06 541.2H1035.02ZM1049.02 524.47C1051.26 524.47 1053.07 525.193 1054.44 526.64C1055.82 528.063 1056.51 530.128 1056.51 532.835V544H1053.32V533.115C1053.32 531.202 1052.83 529.732 1051.85 528.705C1050.87 527.678 1049.54 527.165 1047.86 527.165C1046.11 527.165 1044.71 527.737 1043.66 528.88C1042.61 530 1042.09 531.645 1042.09 533.815V544H1038.9V518.1H1042.09V529.335C1042.58 527.772 1043.44 526.57 1044.68 525.73C1045.94 524.89 1047.39 524.47 1049.02 524.47ZM1079.07 533.325C1079.07 534.002 1079.02 534.585 1078.93 535.075H1063.56C1063.63 537.268 1064.25 538.913 1065.42 540.01C1066.61 541.107 1068.06 541.655 1069.76 541.655C1071.3 541.655 1072.58 541.27 1073.61 540.5C1074.66 539.707 1075.3 538.657 1075.53 537.35H1078.93C1078.7 538.68 1078.17 539.87 1077.35 540.92C1076.56 541.97 1075.52 542.787 1074.24 543.37C1072.96 543.953 1071.51 544.245 1069.9 544.245C1068.06 544.245 1066.42 543.848 1065 543.055C1063.58 542.262 1062.46 541.13 1061.64 539.66C1060.85 538.167 1060.45 536.417 1060.45 534.41C1060.45 532.403 1060.85 530.653 1061.64 529.16C1062.46 527.667 1063.58 526.523 1065 525.73C1066.42 524.937 1068.06 524.54 1069.9 524.54C1071.77 524.54 1073.39 524.937 1074.76 525.73C1076.16 526.523 1077.23 527.585 1077.95 528.915C1078.7 530.245 1079.07 531.715 1079.07 533.325ZM1075.85 533.535C1075.92 532.112 1075.69 530.922 1075.15 529.965C1074.61 529.008 1073.88 528.297 1072.94 527.83C1072.01 527.363 1071 527.13 1069.9 527.13C1068.15 527.13 1066.68 527.678 1065.49 528.775C1064.3 529.848 1063.66 531.435 1063.56 533.535H1075.85ZM1102.49 524.54C1104.19 524.54 1105.71 524.937 1107.04 525.73C1108.37 526.523 1109.41 527.667 1110.15 529.16C1110.92 530.653 1111.31 532.403 1111.31 534.41C1111.31 536.417 1110.92 538.167 1110.15 539.66C1109.41 541.13 1108.37 542.262 1107.04 543.055C1105.71 543.848 1104.19 544.245 1102.49 544.245C1100.62 544.245 1099.03 543.778 1097.73 542.845C1096.44 541.888 1095.56 540.64 1095.07 539.1V553.1H1091.88V524.785H1095.07V529.685C1095.56 528.145 1096.44 526.908 1097.73 525.975C1099.03 525.018 1100.62 524.54 1102.49 524.54ZM1101.58 527.375C1100.34 527.375 1099.22 527.667 1098.22 528.25C1097.21 528.81 1096.43 529.627 1095.87 530.7C1095.31 531.773 1095.03 533.01 1095.03 534.41C1095.03 535.81 1095.31 537.047 1095.87 538.12C1096.43 539.17 1097.21 539.987 1098.22 540.57C1099.22 541.153 1100.34 541.445 1101.58 541.445C1103.56 541.445 1105.14 540.827 1106.3 539.59C1107.49 538.33 1108.09 536.603 1108.09 534.41C1108.09 532.217 1107.49 530.502 1106.3 529.265C1105.14 528.005 1103.56 527.375 1101.58 527.375ZM1123.34 524.54C1125.21 524.54 1126.78 525.007 1128.07 525.94C1129.37 526.873 1130.28 528.122 1130.8 529.685V524.785H1133.98V544H1130.8V539.1C1130.28 540.663 1129.37 541.912 1128.07 542.845C1126.78 543.778 1125.21 544.245 1123.34 544.245C1121.64 544.245 1120.12 543.848 1118.79 543.055C1117.46 542.262 1116.41 541.13 1115.64 539.66C1114.9 538.167 1114.52 536.417 1114.52 534.41C1114.52 532.403 1114.9 530.653 1115.64 529.16C1116.41 527.667 1117.46 526.523 1118.79 525.73C1120.12 524.937 1121.64 524.54 1123.34 524.54ZM1124.25 527.375C1122.29 527.375 1120.72 528.005 1119.53 529.265C1118.36 530.502 1117.78 532.217 1117.78 534.41C1117.78 536.603 1118.36 538.33 1119.53 539.59C1120.72 540.827 1122.29 541.445 1124.25 541.445C1125.51 541.445 1126.63 541.153 1127.61 540.57C1128.62 539.987 1129.4 539.17 1129.96 538.12C1130.52 537.047 1130.8 535.81 1130.8 534.41C1130.8 533.01 1130.52 531.773 1129.96 530.7C1129.4 529.627 1128.62 528.81 1127.61 528.25C1126.63 527.667 1125.51 527.375 1124.25 527.375ZM1146.93 524.54C1148.79 524.54 1150.37 525.007 1151.65 525.94C1152.96 526.873 1153.87 528.122 1154.38 529.685V524.785H1157.57V544.315C1157.57 546.088 1157.19 547.663 1156.45 549.04C1155.7 550.417 1154.65 551.49 1153.3 552.26C1151.94 553.03 1150.37 553.415 1148.57 553.415C1145.98 553.415 1143.87 552.785 1142.24 551.525C1140.6 550.288 1139.56 548.608 1139.12 546.485H1142.27C1142.64 547.768 1143.34 548.772 1144.37 549.495C1145.42 550.242 1146.76 550.615 1148.4 550.615C1150.12 550.615 1151.55 550.055 1152.67 548.935C1153.81 547.838 1154.38 546.298 1154.38 544.315V539.1C1153.87 540.663 1152.96 541.912 1151.65 542.845C1150.37 543.778 1148.79 544.245 1146.93 544.245C1145.22 544.245 1143.71 543.848 1142.38 543.055C1141.05 542.262 1140 541.13 1139.23 539.66C1138.48 538.167 1138.11 536.417 1138.11 534.41C1138.11 532.403 1138.48 530.653 1139.23 529.16C1140 527.667 1141.05 526.523 1142.38 525.73C1143.71 524.937 1145.22 524.54 1146.93 524.54ZM1147.84 527.375C1145.88 527.375 1144.3 528.005 1143.11 529.265C1141.94 530.502 1141.36 532.217 1141.36 534.41C1141.36 536.603 1141.94 538.33 1143.11 539.59C1144.3 540.827 1145.88 541.445 1147.84 541.445C1149.1 541.445 1150.22 541.153 1151.2 540.57C1152.2 539.987 1152.98 539.17 1153.54 538.12C1154.1 537.047 1154.38 535.81 1154.38 534.41C1154.38 533.01 1154.1 531.773 1153.54 530.7C1152.98 529.627 1152.2 528.81 1151.2 528.25C1150.22 527.667 1149.1 527.375 1147.84 527.375ZM1180.31 533.325C1180.31 534.002 1180.26 534.585 1180.17 535.075H1164.81C1164.88 537.268 1165.49 538.913 1166.66 540.01C1167.85 541.107 1169.3 541.655 1171 541.655C1172.54 541.655 1173.82 541.27 1174.85 540.5C1175.9 539.707 1176.54 538.657 1176.78 537.35H1180.17C1179.94 538.68 1179.41 539.87 1178.6 540.92C1177.8 541.97 1176.76 542.787 1175.48 543.37C1174.2 543.953 1172.75 544.245 1171.14 544.245C1169.3 544.245 1167.66 543.848 1166.24 543.055C1164.82 542.262 1163.7 541.13 1162.88 539.66C1162.09 538.167 1161.69 536.417 1161.69 534.41C1161.69 532.403 1162.09 530.653 1162.88 529.16C1163.7 527.667 1164.82 526.523 1166.24 525.73C1167.66 524.937 1169.3 524.54 1171.14 524.54C1173.01 524.54 1174.63 524.937 1176.01 525.73C1177.41 526.523 1178.47 527.585 1179.19 528.915C1179.94 530.245 1180.31 531.715 1180.31 533.325ZM1177.09 533.535C1177.16 532.112 1176.93 530.922 1176.39 529.965C1175.85 529.008 1175.12 528.297 1174.19 527.83C1173.25 527.363 1172.24 527.13 1171.14 527.13C1169.39 527.13 1167.92 527.678 1166.73 528.775C1165.54 529.848 1164.9 531.435 1164.81 533.535H1177.09ZM1194.45 524.785L1200.68 539.905L1206.46 524.785H1209.99L1198.58 553.1H1194.98L1198.97 543.685L1190.88 524.785H1194.45ZM1221.63 524.54C1223.47 524.54 1225.12 524.937 1226.56 525.73C1228.03 526.523 1229.18 527.667 1229.99 529.16C1230.83 530.653 1231.25 532.403 1231.25 534.41C1231.25 536.417 1230.83 538.167 1229.99 539.66C1229.18 541.13 1228.03 542.262 1226.56 543.055C1225.12 543.848 1223.47 544.245 1221.63 544.245C1219.79 544.245 1218.13 543.848 1216.66 543.055C1215.21 542.262 1214.07 541.13 1213.23 539.66C1212.39 538.167 1211.97 536.417 1211.97 534.41C1211.97 532.403 1212.39 530.653 1213.23 529.16C1214.07 527.667 1215.21 526.523 1216.66 525.73C1218.13 524.937 1219.79 524.54 1221.63 524.54ZM1221.63 527.34C1220.49 527.34 1219.42 527.597 1218.44 528.11C1217.49 528.623 1216.71 529.417 1216.1 530.49C1215.52 531.54 1215.22 532.847 1215.22 534.41C1215.22 535.95 1215.52 537.257 1216.1 538.33C1216.71 539.38 1217.49 540.162 1218.44 540.675C1219.42 541.188 1220.49 541.445 1221.63 541.445C1222.77 541.445 1223.82 541.188 1224.78 540.675C1225.76 540.162 1226.54 539.38 1227.12 538.33C1227.73 537.257 1228.03 535.95 1228.03 534.41C1228.03 532.847 1227.73 531.54 1227.12 530.49C1226.54 529.417 1225.76 528.623 1224.78 528.11C1223.82 527.597 1222.77 527.34 1221.63 527.34ZM1252.48 524.785V544H1249.3V539.485C1248.81 541.048 1247.93 542.25 1246.67 543.09C1245.44 543.907 1243.99 544.315 1242.33 544.315C1240.12 544.315 1238.32 543.603 1236.94 542.18C1235.57 540.733 1234.88 538.668 1234.88 535.985V524.785H1238.06V535.67C1238.06 537.583 1238.55 539.065 1239.53 540.115C1240.51 541.142 1241.84 541.655 1243.52 541.655C1245.27 541.655 1246.67 541.095 1247.72 539.975C1248.77 538.832 1249.3 537.175 1249.3 535.005V524.785H1252.48ZM1274.11 524.54C1275.98 524.54 1277.55 525.007 1278.83 525.94C1280.14 526.873 1281.05 528.122 1281.56 529.685V524.785H1284.75V544H1281.56V539.1C1281.05 540.663 1280.14 541.912 1278.83 542.845C1277.55 543.778 1275.98 544.245 1274.11 544.245C1272.41 544.245 1270.89 543.848 1269.56 543.055C1268.23 542.262 1267.18 541.13 1266.41 539.66C1265.66 538.167 1265.29 536.417 1265.29 534.41C1265.29 532.403 1265.66 530.653 1266.41 529.16C1267.18 527.667 1268.23 526.523 1269.56 525.73C1270.89 524.937 1272.41 524.54 1274.11 524.54ZM1275.02 527.375C1273.06 527.375 1271.48 528.005 1270.29 529.265C1269.13 530.502 1268.54 532.217 1268.54 534.41C1268.54 536.603 1269.13 538.33 1270.29 539.59C1271.48 540.827 1273.06 541.445 1275.02 541.445C1276.28 541.445 1277.4 541.153 1278.38 540.57C1279.38 539.987 1280.16 539.17 1280.72 538.12C1281.28 537.047 1281.56 535.81 1281.56 534.41C1281.56 533.01 1281.28 531.773 1280.72 530.7C1280.16 529.627 1279.38 528.81 1278.38 528.25C1277.4 527.667 1276.28 527.375 1275.02 527.375ZM1293 528.67C1293.63 527.34 1294.55 526.313 1295.77 525.59C1296.98 524.843 1298.43 524.47 1300.11 524.47V527.935H1299.13C1297.33 527.935 1295.86 528.402 1294.72 529.335C1293.57 530.245 1293 531.762 1293 533.885V544H1289.82V524.785H1293V528.67ZM1320.93 533.325C1320.93 534.002 1320.88 534.585 1320.79 535.075H1305.42C1305.49 537.268 1306.11 538.913 1307.28 540.01C1308.47 541.107 1309.91 541.655 1311.62 541.655C1313.16 541.655 1314.44 541.27 1315.47 540.5C1316.52 539.707 1317.16 538.657 1317.39 537.35H1320.79C1320.55 538.68 1320.03 539.87 1319.21 540.92C1318.42 541.97 1317.38 542.787 1316.1 543.37C1314.81 543.953 1313.37 544.245 1311.76 544.245C1309.91 544.245 1308.28 543.848 1306.86 543.055C1305.43 542.262 1304.31 541.13 1303.5 539.66C1302.7 538.167 1302.31 536.417 1302.31 534.41C1302.31 532.403 1302.7 530.653 1303.5 529.16C1304.31 527.667 1305.43 526.523 1306.86 525.73C1308.28 524.937 1309.91 524.54 1311.76 524.54C1313.62 524.54 1315.24 524.937 1316.62 525.73C1318.02 526.523 1319.08 527.585 1319.81 528.915C1320.55 530.245 1320.93 531.715 1320.93 533.325ZM1317.71 533.535C1317.78 532.112 1317.54 530.922 1317.01 529.965C1316.47 529.008 1315.73 528.297 1314.8 527.83C1313.87 527.363 1312.85 527.13 1311.76 527.13C1310.01 527.13 1308.54 527.678 1307.35 528.775C1306.16 529.848 1305.51 531.435 1305.42 533.535H1317.71ZM1336.92 518.1V544H1333.74V518.1H1336.92ZM1350.76 524.54C1352.6 524.54 1354.25 524.937 1355.69 525.73C1357.16 526.523 1358.31 527.667 1359.12 529.16C1359.96 530.653 1360.38 532.403 1360.38 534.41C1360.38 536.417 1359.96 538.167 1359.12 539.66C1358.31 541.13 1357.16 542.262 1355.69 543.055C1354.25 543.848 1352.6 544.245 1350.76 544.245C1348.92 544.245 1347.26 543.848 1345.79 543.055C1344.34 542.262 1343.2 541.13 1342.36 539.66C1341.52 538.167 1341.1 536.417 1341.1 534.41C1341.1 532.403 1341.52 530.653 1342.36 529.16C1343.2 527.667 1344.34 526.523 1345.79 525.73C1347.26 524.937 1348.92 524.54 1350.76 524.54ZM1350.76 527.34C1349.62 527.34 1348.55 527.597 1347.57 528.11C1346.62 528.623 1345.84 529.417 1345.23 530.49C1344.65 531.54 1344.35 532.847 1344.35 534.41C1344.35 535.95 1344.65 537.257 1345.23 538.33C1345.84 539.38 1346.62 540.162 1347.57 540.675C1348.55 541.188 1349.62 541.445 1350.76 541.445C1351.9 541.445 1352.95 541.188 1353.91 540.675C1354.89 540.162 1355.67 539.38 1356.25 538.33C1356.86 537.257 1357.16 535.95 1357.16 534.41C1357.16 532.847 1356.86 531.54 1356.25 530.49C1355.67 529.417 1354.89 528.623 1353.91 528.11C1352.95 527.597 1351.9 527.34 1350.76 527.34ZM1373.25 524.54C1375.09 524.54 1376.74 524.937 1378.18 525.73C1379.65 526.523 1380.8 527.667 1381.61 529.16C1382.45 530.653 1382.87 532.403 1382.87 534.41C1382.87 536.417 1382.45 538.167 1381.61 539.66C1380.8 541.13 1379.65 542.262 1378.18 543.055C1376.74 543.848 1375.09 544.245 1373.25 544.245C1371.41 544.245 1369.75 543.848 1368.28 543.055C1366.83 542.262 1365.69 541.13 1364.85 539.66C1364.01 538.167 1363.59 536.417 1363.59 534.41C1363.59 532.403 1364.01 530.653 1364.85 529.16C1365.69 527.667 1366.83 526.523 1368.28 525.73C1369.75 524.937 1371.41 524.54 1373.25 524.54ZM1373.25 527.34C1372.11 527.34 1371.04 527.597 1370.06 528.11C1369.11 528.623 1368.33 529.417 1367.72 530.49C1367.14 531.54 1366.84 532.847 1366.84 534.41C1366.84 535.95 1367.14 537.257 1367.72 538.33C1368.33 539.38 1369.11 540.162 1370.06 540.675C1371.04 541.188 1372.11 541.445 1373.25 541.445C1374.39 541.445 1375.44 541.188 1376.4 540.675C1377.38 540.162 1378.16 539.38 1378.74 538.33C1379.35 537.257 1379.65 535.95 1379.65 534.41C1379.65 532.847 1379.35 531.54 1378.74 530.49C1378.16 529.417 1377.38 528.623 1376.4 528.11C1375.44 527.597 1374.39 527.34 1373.25 527.34ZM1397.56 544L1390.21 535.355V544H1387.02V518.1H1390.21V533.15L1397.45 524.785H1401.34L1392.73 534.34L1401.55 544H1397.56ZM1403.79 519.15C1403.79 518.567 1403.99 518.1 1404.39 517.75C1404.79 517.377 1405.31 517.19 1405.96 517.19C1406.62 517.19 1407.14 517.377 1407.54 517.75C1407.94 518.1 1408.13 518.567 1408.13 519.15C1408.13 519.733 1407.94 520.212 1407.54 520.585C1407.14 520.935 1406.62 521.11 1405.96 521.11C1405.31 521.11 1404.79 520.935 1404.39 520.585C1403.99 520.212 1403.79 519.733 1403.79 519.15ZM1407.54 524.785V544H1404.35V524.785H1407.54ZM1422.77 524.47C1425.01 524.47 1426.82 525.193 1428.2 526.64C1429.58 528.063 1430.26 530.128 1430.26 532.835V544H1427.08V533.115C1427.08 531.202 1426.59 529.732 1425.61 528.705C1424.63 527.678 1423.3 527.165 1421.62 527.165C1419.87 527.165 1418.47 527.737 1417.42 528.88C1416.37 530 1415.84 531.645 1415.84 533.815V544H1412.66V524.785H1415.84V529.335C1416.33 527.772 1417.2 526.57 1418.43 525.73C1419.69 524.89 1421.14 524.47 1422.77 524.47ZM1443.02 524.54C1444.89 524.54 1446.47 525.007 1447.75 525.94C1449.06 526.873 1449.97 528.122 1450.48 529.685V524.785H1453.66V544.315C1453.66 546.088 1453.29 547.663 1452.54 549.04C1451.8 550.417 1450.75 551.49 1449.39 552.26C1448.04 553.03 1446.47 553.415 1444.67 553.415C1442.08 553.415 1439.97 552.785 1438.33 551.525C1436.7 550.288 1435.66 548.608 1435.22 546.485H1438.37C1438.74 547.768 1439.44 548.772 1440.47 549.495C1441.52 550.242 1442.86 550.615 1444.49 550.615C1446.22 550.615 1447.64 550.055 1448.76 548.935C1449.91 547.838 1450.48 546.298 1450.48 544.315V539.1C1449.97 540.663 1449.06 541.912 1447.75 542.845C1446.47 543.778 1444.89 544.245 1443.02 544.245C1441.32 544.245 1439.8 543.848 1438.47 543.055C1437.14 542.262 1436.09 541.13 1435.32 539.66C1434.58 538.167 1434.2 536.417 1434.2 534.41C1434.2 532.403 1434.58 530.653 1435.32 529.16C1436.09 527.667 1437.14 526.523 1438.47 525.73C1439.8 524.937 1441.32 524.54 1443.02 524.54ZM1443.93 527.375C1441.97 527.375 1440.4 528.005 1439.21 529.265C1438.04 530.502 1437.46 532.217 1437.46 534.41C1437.46 536.603 1438.04 538.33 1439.21 539.59C1440.4 540.827 1441.97 541.445 1443.93 541.445C1445.19 541.445 1446.31 541.153 1447.29 540.57C1448.3 539.987 1449.08 539.17 1449.64 538.12C1450.2 537.047 1450.48 535.81 1450.48 534.41C1450.48 533.01 1450.2 531.773 1449.64 530.7C1449.08 529.627 1448.3 528.81 1447.29 528.25C1446.31 527.667 1445.19 527.375 1443.93 527.375ZM1475.89 520.235C1474.18 520.212 1472.99 520.503 1472.32 521.11C1471.66 521.717 1471.34 522.767 1471.34 524.26V524.785H1475.89V527.585H1471.34V544H1468.15V527.585H1465.39V524.785H1468.15V524.015C1468.15 519.418 1470.73 517.225 1475.89 517.435V520.235ZM1488.06 524.54C1489.9 524.54 1491.55 524.937 1492.99 525.73C1494.46 526.523 1495.61 527.667 1496.42 529.16C1497.26 530.653 1497.68 532.403 1497.68 534.41C1497.68 536.417 1497.26 538.167 1496.42 539.66C1495.61 541.13 1494.46 542.262 1492.99 543.055C1491.55 543.848 1489.9 544.245 1488.06 544.245C1486.22 544.245 1484.56 543.848 1483.09 543.055C1481.64 542.262 1480.5 541.13 1479.66 539.66C1478.82 538.167 1478.4 536.417 1478.4 534.41C1478.4 532.403 1478.82 530.653 1479.66 529.16C1480.5 527.667 1481.64 526.523 1483.09 525.73C1484.56 524.937 1486.22 524.54 1488.06 524.54ZM1488.06 527.34C1486.92 527.34 1485.85 527.597 1484.87 528.11C1483.92 528.623 1483.14 529.417 1482.53 530.49C1481.95 531.54 1481.65 532.847 1481.65 534.41C1481.65 535.95 1481.95 537.257 1482.53 538.33C1483.14 539.38 1483.92 540.162 1484.87 540.675C1485.85 541.188 1486.92 541.445 1488.06 541.445C1489.2 541.445 1490.25 541.188 1491.21 540.675C1492.19 540.162 1492.97 539.38 1493.55 538.33C1494.16 537.257 1494.46 535.95 1494.46 534.41C1494.46 532.847 1494.16 531.54 1493.55 530.49C1492.97 529.417 1492.19 528.623 1491.21 528.11C1490.25 527.597 1489.2 527.34 1488.06 527.34ZM1505.02 528.67C1505.65 527.34 1506.57 526.313 1507.78 525.59C1509 524.843 1510.44 524.47 1512.12 524.47V527.935H1511.14C1509.35 527.935 1507.88 528.402 1506.73 529.335C1505.59 530.245 1505.02 531.762 1505.02 533.885V544H1501.83V524.785H1505.02V528.67ZM1517.61 540.255V544H1513.76V540.255H1517.61ZM815.265 572.745V597H812.08V577.645L804.345 597H801.51L793.74 577.715V597H790.555V572.745H794.37L802.98 593.115L811.45 572.745H815.265ZM828.235 577.54C830.101 577.54 831.676 578.007 832.96 578.94C834.266 579.873 835.176 581.122 835.69 582.685V577.785H838.875V597H835.69V592.1C835.176 593.663 834.266 594.912 832.96 595.845C831.676 596.778 830.101 597.245 828.235 597.245C826.531 597.245 825.015 596.848 823.685 596.055C822.355 595.262 821.305 594.13 820.535 592.66C819.788 591.167 819.415 589.417 819.415 587.41C819.415 585.403 819.788 583.653 820.535 582.16C821.305 580.667 822.355 579.523 823.685 578.73C825.015 577.937 826.531 577.54 828.235 577.54ZM829.145 580.375C827.185 580.375 825.61 581.005 824.42 582.265C823.253 583.502 822.67 585.217 822.67 587.41C822.67 589.603 823.253 591.33 824.42 592.59C825.61 593.827 827.185 594.445 829.145 594.445C830.405 594.445 831.525 594.153 832.505 593.57C833.508 592.987 834.29 592.17 834.85 591.12C835.41 590.047 835.69 588.81 835.69 587.41C835.69 586.01 835.41 584.773 834.85 583.7C834.29 582.627 833.508 581.81 832.505 581.25C831.525 580.667 830.405 580.375 829.145 580.375ZM845.274 577.785L851.504 592.905L857.279 577.785H860.814L849.404 606.1H845.799L849.789 596.685L841.704 577.785H845.274ZM882.986 577.54C884.69 577.54 886.206 577.937 887.536 578.73C888.866 579.523 889.905 580.667 890.651 582.16C891.421 583.653 891.806 585.403 891.806 587.41C891.806 589.417 891.421 591.167 890.651 592.66C889.905 594.13 888.866 595.262 887.536 596.055C886.206 596.848 884.69 597.245 882.986 597.245C881.12 597.245 879.533 596.778 878.226 595.845C876.943 594.888 876.056 593.64 875.566 592.1V597H872.381V571.1H875.566V582.685C876.056 581.145 876.943 579.908 878.226 578.975C879.533 578.018 881.12 577.54 882.986 577.54ZM882.076 580.375C880.84 580.375 879.72 580.667 878.716 581.25C877.713 581.81 876.931 582.627 876.371 583.7C875.811 584.773 875.531 586.01 875.531 587.41C875.531 588.81 875.811 590.047 876.371 591.12C876.931 592.17 877.713 592.987 878.716 593.57C879.72 594.153 880.84 594.445 882.076 594.445C884.06 594.445 885.635 593.827 886.801 592.59C887.991 591.33 888.586 589.603 888.586 587.41C888.586 585.217 887.991 583.502 886.801 582.265C885.635 581.005 884.06 580.375 882.076 580.375ZM913.64 586.325C913.64 587.002 913.593 587.585 913.5 588.075H898.135C898.205 590.268 898.823 591.913 899.99 593.01C901.18 594.107 902.627 594.655 904.33 594.655C905.87 594.655 907.153 594.27 908.18 593.5C909.23 592.707 909.872 591.657 910.105 590.35H913.5C913.267 591.68 912.742 592.87 911.925 593.92C911.132 594.97 910.093 595.787 908.81 596.37C907.527 596.953 906.08 597.245 904.47 597.245C902.627 597.245 900.993 596.848 899.57 596.055C898.147 595.262 897.027 594.13 896.21 592.66C895.417 591.167 895.02 589.417 895.02 587.41C895.02 585.403 895.417 583.653 896.21 582.16C897.027 580.667 898.147 579.523 899.57 578.73C900.993 577.937 902.627 577.54 904.47 577.54C906.337 577.54 907.958 577.937 909.335 578.73C910.735 579.523 911.797 580.585 912.52 581.915C913.267 583.245 913.64 584.715 913.64 586.325ZM910.42 586.535C910.49 585.112 910.257 583.922 909.72 582.965C909.183 582.008 908.448 581.297 907.515 580.83C906.582 580.363 905.567 580.13 904.47 580.13C902.72 580.13 901.25 580.678 900.06 581.775C898.87 582.848 898.228 584.435 898.135 586.535H910.42ZM935.623 594.2V597H933.243C931.283 597 929.813 596.533 928.833 595.6C927.877 594.667 927.398 593.103 927.398 590.91V580.55H924.528V577.785H927.398V572.99H930.618V577.785H935.588V580.55H930.618V590.98C930.618 592.217 930.84 593.068 931.283 593.535C931.75 593.978 932.543 594.2 933.663 594.2H935.623ZM949.625 577.47C951.865 577.47 953.673 578.193 955.05 579.64C956.427 581.063 957.115 583.128 957.115 585.835V597H953.93V586.115C953.93 584.202 953.44 582.732 952.46 581.705C951.48 580.678 950.15 580.165 948.47 580.165C946.72 580.165 945.32 580.737 944.27 581.88C943.22 583 942.695 584.645 942.695 586.815V597H939.51V571.1H942.695V582.335C943.185 580.772 944.048 579.57 945.285 578.73C946.545 577.89 947.992 577.47 949.625 577.47ZM979.675 586.325C979.675 587.002 979.629 587.585 979.535 588.075H964.17C964.24 590.268 964.859 591.913 966.025 593.01C967.215 594.107 968.662 594.655 970.365 594.655C971.905 594.655 973.189 594.27 974.215 593.5C975.265 592.707 975.907 591.657 976.14 590.35H979.535C979.302 591.68 978.777 592.87 977.96 593.92C977.167 594.97 976.129 595.787 974.845 596.37C973.562 596.953 972.115 597.245 970.505 597.245C968.662 597.245 967.029 596.848 965.605 596.055C964.182 595.262 963.062 594.13 962.245 592.66C961.452 591.167 961.055 589.417 961.055 587.41C961.055 585.403 961.452 583.653 962.245 582.16C963.062 580.667 964.182 579.523 965.605 578.73C967.029 577.937 968.662 577.54 970.505 577.54C972.372 577.54 973.994 577.937 975.37 578.73C976.77 579.523 977.832 580.585 978.555 581.915C979.302 583.245 979.675 584.715 979.675 586.325ZM976.455 586.535C976.525 585.112 976.292 583.922 975.755 582.965C975.219 582.008 974.484 581.297 973.55 580.83C972.617 580.363 971.602 580.13 970.505 580.13C968.755 580.13 967.285 580.678 966.095 581.775C964.905 582.848 964.264 584.435 964.17 586.535H976.455ZM1003.09 577.54C1004.8 577.54 1006.31 577.937 1007.64 578.73C1008.97 579.523 1010.01 580.667 1010.76 582.16C1011.53 583.653 1011.91 585.403 1011.91 587.41C1011.91 589.417 1011.53 591.167 1010.76 592.66C1010.01 594.13 1008.97 595.262 1007.64 596.055C1006.31 596.848 1004.8 597.245 1003.09 597.245C1001.23 597.245 999.64 596.778 998.334 595.845C997.05 594.888 996.164 593.64 995.674 592.1V606.1H992.489V577.785H995.674V582.685C996.164 581.145 997.05 579.908 998.334 578.975C999.64 578.018 1001.23 577.54 1003.09 577.54ZM1002.18 580.375C1000.95 580.375 999.827 580.667 998.824 581.25C997.82 581.81 997.039 582.627 996.479 583.7C995.919 584.773 995.639 586.01 995.639 587.41C995.639 588.81 995.919 590.047 996.479 591.12C997.039 592.17 997.82 592.987 998.824 593.57C999.827 594.153 1000.95 594.445 1002.18 594.445C1004.17 594.445 1005.74 593.827 1006.91 592.59C1008.1 591.33 1008.69 589.603 1008.69 587.41C1008.69 585.217 1008.1 583.502 1006.91 582.265C1005.74 581.005 1004.17 580.375 1002.18 580.375ZM1023.95 577.54C1025.81 577.54 1027.39 578.007 1028.67 578.94C1029.98 579.873 1030.89 581.122 1031.4 582.685V577.785H1034.59V597H1031.4V592.1C1030.89 593.663 1029.98 594.912 1028.67 595.845C1027.39 596.778 1025.81 597.245 1023.95 597.245C1022.24 597.245 1020.73 596.848 1019.4 596.055C1018.07 595.262 1017.02 594.13 1016.25 592.66C1015.5 591.167 1015.13 589.417 1015.13 587.41C1015.13 585.403 1015.5 583.653 1016.25 582.16C1017.02 580.667 1018.07 579.523 1019.4 578.73C1020.73 577.937 1022.24 577.54 1023.95 577.54ZM1024.86 580.375C1022.9 580.375 1021.32 581.005 1020.13 582.265C1018.97 583.502 1018.38 585.217 1018.38 587.41C1018.38 589.603 1018.97 591.33 1020.13 592.59C1021.32 593.827 1022.9 594.445 1024.86 594.445C1026.12 594.445 1027.24 594.153 1028.22 593.57C1029.22 592.987 1030 592.17 1030.56 591.12C1031.12 590.047 1031.4 588.81 1031.4 587.41C1031.4 586.01 1031.12 584.773 1030.56 583.7C1030 582.627 1029.22 581.81 1028.22 581.25C1027.24 580.667 1026.12 580.375 1024.86 580.375ZM1047.53 577.54C1049.4 577.54 1050.97 578.007 1052.26 578.94C1053.56 579.873 1054.47 581.122 1054.99 582.685V577.785H1058.17V597.315C1058.17 599.088 1057.8 600.663 1057.05 602.04C1056.3 603.417 1055.25 604.49 1053.9 605.26C1052.55 606.03 1050.97 606.415 1049.18 606.415C1046.59 606.415 1044.47 605.785 1042.84 604.525C1041.21 603.288 1040.17 601.608 1039.73 599.485H1042.88C1043.25 600.768 1043.95 601.772 1044.98 602.495C1046.03 603.242 1047.37 603.615 1049 603.615C1050.73 603.615 1052.15 603.055 1053.27 601.935C1054.41 600.838 1054.99 599.298 1054.99 597.315V592.1C1054.47 593.663 1053.56 594.912 1052.26 595.845C1050.97 596.778 1049.4 597.245 1047.53 597.245C1045.83 597.245 1044.31 596.848 1042.98 596.055C1041.65 595.262 1040.6 594.13 1039.83 592.66C1039.08 591.167 1038.71 589.417 1038.71 587.41C1038.71 585.403 1039.08 583.653 1039.83 582.16C1040.6 580.667 1041.65 579.523 1042.98 578.73C1044.31 577.937 1045.83 577.54 1047.53 577.54ZM1048.44 580.375C1046.48 580.375 1044.91 581.005 1043.72 582.265C1042.55 583.502 1041.97 585.217 1041.97 587.41C1041.97 589.603 1042.55 591.33 1043.72 592.59C1044.91 593.827 1046.48 594.445 1048.44 594.445C1049.7 594.445 1050.82 594.153 1051.8 593.57C1052.8 592.987 1053.59 592.17 1054.15 591.12C1054.71 590.047 1054.99 588.81 1054.99 587.41C1054.99 586.01 1054.71 584.773 1054.15 583.7C1053.59 582.627 1052.8 581.81 1051.8 581.25C1050.82 580.667 1049.7 580.375 1048.44 580.375ZM1080.92 586.325C1080.92 587.002 1080.87 587.585 1080.78 588.075H1065.41C1065.48 590.268 1066.1 591.913 1067.27 593.01C1068.46 594.107 1069.9 594.655 1071.61 594.655C1073.15 594.655 1074.43 594.27 1075.46 593.5C1076.51 592.707 1077.15 591.657 1077.38 590.35H1080.78C1080.54 591.68 1080.02 592.87 1079.2 593.92C1078.41 594.97 1077.37 595.787 1076.09 596.37C1074.8 596.953 1073.36 597.245 1071.75 597.245C1069.9 597.245 1068.27 596.848 1066.85 596.055C1065.42 595.262 1064.3 594.13 1063.49 592.66C1062.69 591.167 1062.3 589.417 1062.3 587.41C1062.3 585.403 1062.69 583.653 1063.49 582.16C1064.3 580.667 1065.42 579.523 1066.85 578.73C1068.27 577.937 1069.9 577.54 1071.75 577.54C1073.61 577.54 1075.23 577.937 1076.61 578.73C1078.01 579.523 1079.07 580.585 1079.8 581.915C1080.54 583.245 1080.92 584.715 1080.92 586.325ZM1077.7 586.535C1077.77 585.112 1077.53 583.922 1077 582.965C1076.46 582.008 1075.72 581.297 1074.79 580.83C1073.86 580.363 1072.84 580.13 1071.75 580.13C1070 580.13 1068.53 580.678 1067.34 581.775C1066.15 582.848 1065.5 584.435 1065.41 586.535H1077.7ZM1093.17 572.15C1093.17 571.567 1093.37 571.1 1093.76 570.75C1094.16 570.377 1094.69 570.19 1095.34 570.19C1095.99 570.19 1096.52 570.377 1096.91 570.75C1097.31 571.1 1097.51 571.567 1097.51 572.15C1097.51 572.733 1097.31 573.212 1096.91 573.585C1096.52 573.935 1095.99 574.11 1095.34 574.11C1094.69 574.11 1094.16 573.935 1093.76 573.585C1093.37 573.212 1093.17 572.733 1093.17 572.15ZM1096.91 577.785V597H1093.73V577.785H1096.91ZM1108.05 577.54C1110.22 577.54 1111.96 578.112 1113.27 579.255C1114.6 580.375 1115.4 581.892 1115.68 583.805H1112.64C1112.5 582.662 1112.02 581.728 1111.2 581.005C1110.41 580.258 1109.34 579.885 1107.98 579.885C1106.84 579.885 1105.94 580.165 1105.29 580.725C1104.66 581.262 1104.34 581.997 1104.34 582.93C1104.34 583.63 1104.55 584.202 1104.97 584.645C1105.42 585.065 1105.95 585.392 1106.58 585.625C1107.24 585.835 1108.12 586.068 1109.24 586.325C1110.67 586.652 1111.81 586.99 1112.67 587.34C1113.56 587.667 1114.31 588.203 1114.91 588.95C1115.54 589.697 1115.86 590.7 1115.86 591.96C1115.86 593.523 1115.26 594.795 1114.07 595.775C1112.91 596.755 1111.34 597.245 1109.38 597.245C1107.1 597.245 1105.23 596.697 1103.78 595.6C1102.34 594.503 1101.49 592.975 1101.23 591.015H1104.31C1104.43 592.182 1104.93 593.127 1105.81 593.85C1106.72 594.573 1107.91 594.935 1109.38 594.935C1110.48 594.935 1111.33 594.655 1111.94 594.095C1112.57 593.535 1112.88 592.8 1112.88 591.89C1112.88 591.143 1112.66 590.548 1112.22 590.105C1111.78 589.662 1111.23 589.323 1110.57 589.09C1109.92 588.857 1109.02 588.612 1107.88 588.355C1106.46 588.028 1105.31 587.702 1104.45 587.375C1103.61 587.048 1102.89 586.535 1102.28 585.835C1101.7 585.112 1101.4 584.143 1101.4 582.93C1101.4 581.32 1102 580.025 1103.19 579.045C1104.38 578.042 1106 577.54 1108.05 577.54ZM1152.39 577.47C1154.63 577.47 1156.42 578.193 1157.78 579.64C1159.15 581.063 1159.84 583.128 1159.84 585.835V597H1156.66V586.115C1156.66 584.225 1156.19 582.778 1155.26 581.775C1154.35 580.772 1153.09 580.27 1151.48 580.27C1149.8 580.27 1148.44 580.83 1147.42 581.95C1146.41 583.047 1145.91 584.668 1145.91 586.815V597H1142.73V586.115C1142.73 584.225 1142.26 582.778 1141.33 581.775C1140.39 580.772 1139.13 580.27 1137.55 580.27C1135.84 580.27 1134.48 580.83 1133.45 581.95C1132.45 583.047 1131.95 584.668 1131.95 586.815V597H1128.76V577.785H1131.95V582.16C1132.41 580.643 1133.24 579.488 1134.43 578.695C1135.65 577.878 1137.03 577.47 1138.6 577.47C1140.23 577.47 1141.64 577.89 1142.83 578.73C1144.05 579.547 1144.91 580.76 1145.42 582.37C1145.96 580.807 1146.86 579.605 1148.12 578.765C1149.38 577.902 1150.8 577.47 1152.39 577.47ZM1173.5 577.54C1175.35 577.54 1176.99 577.937 1178.44 578.73C1179.91 579.523 1181.05 580.667 1181.87 582.16C1182.71 583.653 1183.13 585.403 1183.13 587.41C1183.13 589.417 1182.71 591.167 1181.87 592.66C1181.05 594.13 1179.91 595.262 1178.44 596.055C1176.99 596.848 1175.35 597.245 1173.5 597.245C1171.66 597.245 1170 596.848 1168.53 596.055C1167.09 595.262 1165.94 594.13 1165.1 592.66C1164.26 591.167 1163.84 589.417 1163.84 587.41C1163.84 585.403 1164.26 583.653 1165.1 582.16C1165.94 580.667 1167.09 579.523 1168.53 578.73C1170 577.937 1171.66 577.54 1173.5 577.54ZM1173.5 580.34C1172.36 580.34 1171.3 580.597 1170.32 581.11C1169.36 581.623 1168.58 582.417 1167.97 583.49C1167.39 584.54 1167.1 585.847 1167.1 587.41C1167.1 588.95 1167.39 590.257 1167.97 591.33C1168.58 592.38 1169.36 593.162 1170.32 593.675C1171.3 594.188 1172.36 594.445 1173.5 594.445C1174.65 594.445 1175.7 594.188 1176.65 593.675C1177.63 593.162 1178.42 592.38 1179 591.33C1179.61 590.257 1179.91 588.95 1179.91 587.41C1179.91 585.847 1179.61 584.54 1179 583.49C1178.42 582.417 1177.63 581.623 1176.65 581.11C1175.7 580.597 1174.65 580.34 1173.5 580.34ZM1194.73 593.605L1200.68 577.785H1204.11L1196.59 597H1192.81L1185.28 577.785H1188.71L1194.73 593.605ZM1224.91 586.325C1224.91 587.002 1224.87 587.585 1224.77 588.075H1209.41C1209.48 590.268 1210.1 591.913 1211.26 593.01C1212.45 594.107 1213.9 594.655 1215.6 594.655C1217.14 594.655 1218.43 594.27 1219.45 593.5C1220.5 592.707 1221.15 591.657 1221.38 590.35H1224.77C1224.54 591.68 1224.02 592.87 1223.2 593.92C1222.41 594.97 1221.37 595.787 1220.08 596.37C1218.8 596.953 1217.35 597.245 1215.74 597.245C1213.9 597.245 1212.27 596.848 1210.84 596.055C1209.42 595.262 1208.3 594.13 1207.48 592.66C1206.69 591.167 1206.29 589.417 1206.29 587.41C1206.29 585.403 1206.69 583.653 1207.48 582.16C1208.3 580.667 1209.42 579.523 1210.84 578.73C1212.27 577.937 1213.9 577.54 1215.74 577.54C1217.61 577.54 1219.23 577.937 1220.61 578.73C1222.01 579.523 1223.07 580.585 1223.79 581.915C1224.54 583.245 1224.91 584.715 1224.91 586.325ZM1221.69 586.535C1221.76 585.112 1221.53 583.922 1220.99 582.965C1220.46 582.008 1219.72 581.297 1218.79 580.83C1217.86 580.363 1216.84 580.13 1215.74 580.13C1213.99 580.13 1212.52 580.678 1211.33 581.775C1210.14 582.848 1209.5 584.435 1209.41 586.535H1221.69ZM1236.96 577.54C1238.82 577.54 1240.4 578.007 1241.68 578.94C1242.99 579.873 1243.9 581.122 1244.41 582.685V571.1H1247.6V597H1244.41V592.1C1243.9 593.663 1242.99 594.912 1241.68 595.845C1240.4 596.778 1238.82 597.245 1236.96 597.245C1235.25 597.245 1233.74 596.848 1232.41 596.055C1231.08 595.262 1230.03 594.13 1229.26 592.66C1228.51 591.167 1228.14 589.417 1228.14 587.41C1228.14 585.403 1228.51 583.653 1229.26 582.16C1230.03 580.667 1231.08 579.523 1232.41 578.73C1233.74 577.937 1235.25 577.54 1236.96 577.54ZM1237.87 580.375C1235.91 580.375 1234.33 581.005 1233.14 582.265C1231.97 583.502 1231.39 585.217 1231.39 587.41C1231.39 589.603 1231.97 591.33 1233.14 592.59C1234.33 593.827 1235.91 594.445 1237.87 594.445C1239.13 594.445 1240.25 594.153 1241.23 593.57C1242.23 592.987 1243.01 592.17 1243.57 591.12C1244.13 590.047 1244.41 588.81 1244.41 587.41C1244.41 586.01 1244.13 584.773 1243.57 583.7C1243.01 582.627 1242.23 581.81 1241.23 581.25C1240.25 580.667 1239.13 580.375 1237.87 580.375ZM1270.03 577.54C1271.87 577.54 1273.52 577.937 1274.96 578.73C1276.43 579.523 1277.58 580.667 1278.39 582.16C1279.23 583.653 1279.65 585.403 1279.65 587.41C1279.65 589.417 1279.23 591.167 1278.39 592.66C1277.58 594.13 1276.43 595.262 1274.96 596.055C1273.52 596.848 1271.87 597.245 1270.03 597.245C1268.18 597.245 1266.53 596.848 1265.06 596.055C1263.61 595.262 1262.47 594.13 1261.63 592.66C1260.79 591.167 1260.37 589.417 1260.37 587.41C1260.37 585.403 1260.79 583.653 1261.63 582.16C1262.47 580.667 1263.61 579.523 1265.06 578.73C1266.53 577.937 1268.18 577.54 1270.03 577.54ZM1270.03 580.34C1268.88 580.34 1267.82 580.597 1266.84 581.11C1265.89 581.623 1265.1 582.417 1264.5 583.49C1263.91 584.54 1263.62 585.847 1263.62 587.41C1263.62 588.95 1263.91 590.257 1264.5 591.33C1265.1 592.38 1265.89 593.162 1266.84 593.675C1267.82 594.188 1268.88 594.445 1270.03 594.445C1271.17 594.445 1272.22 594.188 1273.18 593.675C1274.16 593.162 1274.94 592.38 1275.52 591.33C1276.13 590.257 1276.43 588.95 1276.43 587.41C1276.43 585.847 1276.13 584.54 1275.52 583.49C1274.94 582.417 1274.16 581.623 1273.18 581.11C1272.22 580.597 1271.17 580.34 1270.03 580.34ZM1286.99 581.67C1287.62 580.34 1288.54 579.313 1289.75 578.59C1290.97 577.843 1292.41 577.47 1294.09 577.47V580.935H1293.11C1291.32 580.935 1289.85 581.402 1288.7 582.335C1287.56 583.245 1286.99 584.762 1286.99 586.885V597H1283.8V577.785H1286.99V581.67ZM1313.76 577.54C1315.62 577.54 1317.2 578.007 1318.48 578.94C1319.79 579.873 1320.7 581.122 1321.21 582.685V571.1H1324.4V597H1321.21V592.1C1320.7 593.663 1319.79 594.912 1318.48 595.845C1317.2 596.778 1315.62 597.245 1313.76 597.245C1312.05 597.245 1310.54 596.848 1309.21 596.055C1307.88 595.262 1306.83 594.13 1306.06 592.66C1305.31 591.167 1304.94 589.417 1304.94 587.41C1304.94 585.403 1305.31 583.653 1306.06 582.16C1306.83 580.667 1307.88 579.523 1309.21 578.73C1310.54 577.937 1312.05 577.54 1313.76 577.54ZM1314.67 580.375C1312.71 580.375 1311.13 581.005 1309.94 582.265C1308.78 583.502 1308.19 585.217 1308.19 587.41C1308.19 589.603 1308.78 591.33 1309.94 592.59C1311.13 593.827 1312.71 594.445 1314.67 594.445C1315.93 594.445 1317.05 594.153 1318.03 593.57C1319.03 592.987 1319.81 592.17 1320.37 591.12C1320.93 590.047 1321.21 588.81 1321.21 587.41C1321.21 586.01 1320.93 584.773 1320.37 583.7C1319.81 582.627 1319.03 581.81 1318.03 581.25C1317.05 580.667 1315.93 580.375 1314.67 580.375ZM1347.14 586.325C1347.14 587.002 1347.09 587.585 1347 588.075H1331.64C1331.71 590.268 1332.32 591.913 1333.49 593.01C1334.68 594.107 1336.13 594.655 1337.83 594.655C1339.37 594.655 1340.65 594.27 1341.68 593.5C1342.73 592.707 1343.37 591.657 1343.61 590.35H1347C1346.77 591.68 1346.24 592.87 1345.43 593.92C1344.63 594.97 1343.59 595.787 1342.31 596.37C1341.03 596.953 1339.58 597.245 1337.97 597.245C1336.13 597.245 1334.49 596.848 1333.07 596.055C1331.65 595.262 1330.53 594.13 1329.71 592.66C1328.92 591.167 1328.52 589.417 1328.52 587.41C1328.52 585.403 1328.92 583.653 1329.71 582.16C1330.53 580.667 1331.65 579.523 1333.07 578.73C1334.49 577.937 1336.13 577.54 1337.97 577.54C1339.84 577.54 1341.46 577.937 1342.84 578.73C1344.24 579.523 1345.3 580.585 1346.02 581.915C1346.77 583.245 1347.14 584.715 1347.14 586.325ZM1343.92 586.535C1343.99 585.112 1343.76 583.922 1343.22 582.965C1342.68 582.008 1341.95 581.297 1341.02 580.83C1340.08 580.363 1339.07 580.13 1337.97 580.13C1336.22 580.13 1334.75 580.678 1333.56 581.775C1332.37 582.848 1331.73 584.435 1331.64 586.535H1343.92ZM1354.49 571.1V597H1351.31V571.1H1354.49ZM1377.29 586.325C1377.29 587.002 1377.24 587.585 1377.15 588.075H1361.78C1361.85 590.268 1362.47 591.913 1363.64 593.01C1364.83 594.107 1366.27 594.655 1367.98 594.655C1369.52 594.655 1370.8 594.27 1371.83 593.5C1372.88 592.707 1373.52 591.657 1373.75 590.35H1377.15C1376.91 591.68 1376.39 592.87 1375.57 593.92C1374.78 594.97 1373.74 595.787 1372.46 596.37C1371.17 596.953 1369.73 597.245 1368.12 597.245C1366.27 597.245 1364.64 596.848 1363.22 596.055C1361.79 595.262 1360.67 594.13 1359.86 592.66C1359.06 591.167 1358.67 589.417 1358.67 587.41C1358.67 585.403 1359.06 583.653 1359.86 582.16C1360.67 580.667 1361.79 579.523 1363.22 578.73C1364.64 577.937 1366.27 577.54 1368.12 577.54C1369.98 577.54 1371.61 577.937 1372.98 578.73C1374.38 579.523 1375.44 580.585 1376.17 581.915C1376.91 583.245 1377.29 584.715 1377.29 586.325ZM1374.07 586.535C1374.14 585.112 1373.9 583.922 1373.37 582.965C1372.83 582.008 1372.1 581.297 1371.16 580.83C1370.23 580.363 1369.21 580.13 1368.12 580.13C1366.37 580.13 1364.9 580.678 1363.71 581.775C1362.52 582.848 1361.88 584.435 1361.78 586.535H1374.07ZM1390.62 594.2V597H1388.24C1386.28 597 1384.81 596.533 1383.83 595.6C1382.88 594.667 1382.4 593.103 1382.4 590.91V580.55H1379.53V577.785H1382.4V572.99H1385.62V577.785H1390.59V580.55H1385.62V590.98C1385.62 592.217 1385.84 593.068 1386.28 593.535C1386.75 593.978 1387.54 594.2 1388.66 594.2H1390.62ZM1412.19 586.325C1412.19 587.002 1412.14 587.585 1412.05 588.075H1396.68C1396.75 590.268 1397.37 591.913 1398.54 593.01C1399.73 594.107 1401.17 594.655 1402.88 594.655C1404.42 594.655 1405.7 594.27 1406.73 593.5C1407.78 592.707 1408.42 591.657 1408.65 590.35H1412.05C1411.81 591.68 1411.29 592.87 1410.47 593.92C1409.68 594.97 1408.64 595.787 1407.36 596.37C1406.07 596.953 1404.63 597.245 1403.02 597.245C1401.17 597.245 1399.54 596.848 1398.12 596.055C1396.69 595.262 1395.57 594.13 1394.76 592.66C1393.96 591.167 1393.57 589.417 1393.57 587.41C1393.57 585.403 1393.96 583.653 1394.76 582.16C1395.57 580.667 1396.69 579.523 1398.12 578.73C1399.54 577.937 1401.17 577.54 1403.02 577.54C1404.88 577.54 1406.5 577.937 1407.88 578.73C1409.28 579.523 1410.34 580.585 1411.07 581.915C1411.81 583.245 1412.19 584.715 1412.19 586.325ZM1408.97 586.535C1409.04 585.112 1408.8 583.922 1408.27 582.965C1407.73 582.008 1406.99 581.297 1406.06 580.83C1405.13 580.363 1404.11 580.13 1403.02 580.13C1401.27 580.13 1399.8 580.678 1398.61 581.775C1397.42 582.848 1396.77 584.435 1396.68 586.535H1408.97ZM1424.23 577.54C1426.09 577.54 1427.67 578.007 1428.95 578.94C1430.26 579.873 1431.17 581.122 1431.68 582.685V571.1H1434.87V597H1431.68V592.1C1431.17 593.663 1430.26 594.912 1428.95 595.845C1427.67 596.778 1426.09 597.245 1424.23 597.245C1422.52 597.245 1421.01 596.848 1419.68 596.055C1418.35 595.262 1417.3 594.13 1416.53 592.66C1415.78 591.167 1415.41 589.417 1415.41 587.41C1415.41 585.403 1415.78 583.653 1416.53 582.16C1417.3 580.667 1418.35 579.523 1419.68 578.73C1421.01 577.937 1422.52 577.54 1424.23 577.54ZM1425.14 580.375C1423.18 580.375 1421.6 581.005 1420.41 582.265C1419.24 583.502 1418.66 585.217 1418.66 587.41C1418.66 589.603 1419.24 591.33 1420.41 592.59C1421.6 593.827 1423.18 594.445 1425.14 594.445C1426.4 594.445 1427.52 594.153 1428.5 593.57C1429.5 592.987 1430.28 592.17 1430.84 591.12C1431.4 590.047 1431.68 588.81 1431.68 587.41C1431.68 586.01 1431.4 584.773 1430.84 583.7C1430.28 582.627 1429.5 581.81 1428.5 581.25C1427.52 580.667 1426.4 580.375 1425.14 580.375ZM1442.28 593.255V597H1438.43V593.255H1442.28Z" fill="#3D3D3D"/>
<g id="clouds">
<path id="cloud1" d="M1467.65 150.749C1431.54 152.049 1412.84 170.791 1408 180H1753C1738.81 163.099 1706.25 165.374 1691.74 168.624C1680.13 142.623 1646.06 141.54 1630.48 144.248C1558.25 79.2451 1491.83 121.497 1467.65 150.749Z" fill="#FFE6BA" fill-opacity="0.55"/>
<path id="cloud2" d="M1057.32 234.942C1032.31 235.833 1019.35 248.685 1016 255H1255C1245.17 243.411 1222.61 244.971 1212.56 247.199C1204.52 229.37 1180.92 228.627 1170.12 230.485C1120.09 185.911 1074.07 214.884 1057.32 234.942Z" fill="#FFE6BA" fill-opacity="0.55"/>
<path id="cloud3" d="M1394.8 316.046C1378.57 316.622 1370.17 324.922 1368 329H1523C1516.63 321.515 1502 322.523 1495.48 323.962C1490.26 312.447 1474.95 311.968 1467.95 313.167C1435.5 284.38 1405.66 303.092 1394.8 316.046Z" fill="#FFE6BA" fill-opacity="0.55"/>
</g>
<g id="clouds_2">
<path id="cloud1_2" d="M523.65 838.749C487.537 840.049 468.836 858.791 464 868H809C794.813 851.099 762.248 853.374 747.738 856.624C736.131 830.623 702.061 829.54 686.477 832.248C614.252 767.245 547.832 809.497 523.65 838.749Z" fill="#FFE6BA" fill-opacity="0.55"/>
<path id="cloud2_2" d="M113.322 922.942C88.3056 923.833 75.3505 936.685 72 943H311C301.172 931.411 278.612 932.971 268.561 935.199C260.52 917.37 236.917 916.627 226.122 918.485C176.088 873.911 130.075 902.884 113.322 922.942Z" fill="#FFE6BA" fill-opacity="0.55"/>
<path id="cloud3_2" d="M450.799 1004.05C434.575 1004.62 426.173 1012.92 424 1017H579C572.626 1009.52 557.995 1010.52 551.477 1011.96C546.262 1000.45 530.955 999.968 523.953 1001.17C491.505 972.38 461.664 991.092 450.799 1004.05Z" fill="#FFE6BA" fill-opacity="0.55"/>
</g>
<path id="cloud1_3" d="M1375.65 745.749C1339.54 747.049 1320.84 765.791 1316 775H1661C1646.81 758.099 1614.25 760.374 1599.74 763.624C1588.13 737.623 1554.06 736.54 1538.48 739.248C1466.25 674.245 1399.83 716.497 1375.65 745.749Z" fill="#FFE6BA" fill-opacity="0.55"/>
<path id="cloud1_4" d="M578.65 126.749C542.537 128.049 523.836 146.791 519 156H864C849.813 139.099 817.248 141.374 802.738 144.624C791.131 118.623 757.061 117.54 741.477 120.248C669.252 55.2451 602.832 97.4971 578.65 126.749Z" fill="#FFE6BA" fill-opacity="0.55"/>
<path id="cloud2_3" d="M1589.32 970.942C1564.31 971.833 1551.35 984.685 1548 991H1787C1777.17 979.411 1754.61 980.971 1744.56 983.199C1736.52 965.37 1712.92 964.627 1702.12 966.485C1652.09 921.911 1606.07 950.884 1589.32 970.942Z" fill="#FFE6BA" fill-opacity="0.55"/>
<path id="cloud2_4" d="M206.322 583.942C181.306 584.833 168.35 597.685 165 604H404C394.172 592.411 371.612 593.971 361.561 596.199C353.52 578.37 329.917 577.627 319.122 579.485C269.088 534.911 223.075 563.884 206.322 583.942Z" fill="#FFE6BA" fill-opacity="0.55"/>
<path id="cloud2_5" d="M232.322 269.942C207.306 270.833 194.35 283.685 191 290H430C420.172 278.411 397.612 279.971 387.561 282.199C379.52 264.37 355.917 263.627 345.122 265.485C295.088 220.911 249.075 249.884 232.322 269.942Z" fill="#FFE6BA" fill-opacity="0.55"/>
<path id="cloud3_3" d="M1084.8 948.046C1068.57 948.622 1060.17 956.922 1058 961H1213C1206.63 953.515 1192 954.523 1185.48 955.962C1180.26 944.447 1164.95 943.968 1157.95 945.167C1125.5 916.38 1095.66 935.092 1084.8 948.046Z" fill="#FFE6BA" fill-opacity="0.55"/>
</g>
</svg>
