<svg width="991" height="964" viewBox="0 0 991 964" fill="none" xmlns="http://www.w3.org/2000/svg">
<g id="home">
<path id="Rectangle 65" d="M0 965L8.46667e-07 894C1.04424e-06 877.431 13.4315 864 30 864L44 864L44 965L0 965Z" fill="white"/>
<rect id="Rectangle 63" y="863" width="991" height="44" rx="22" fill="white"/>
<path id="Rectangle 66" d="M947 965L947 864L961 864C977.569 864 991 877.431 991 894L991 965L947 965Z" fill="white"/>
<g id="Group 14">
<path id="Vector 38" d="M72.1474 719.01C76.8031 733.908 88.0543 753.927 93.098 762.075H137.327V719.01C138.103 703.879 137.56 669.893 129.179 654.994C118.704 636.372 102.363 636.608 93.098 637.536C87.1563 638.131 77.323 642.776 72.1474 649.175C68.2656 653.974 66.3279 665.47 66.3279 671.289C66.3279 677.109 66.3279 700.387 72.1474 719.01Z" fill="#147B67"/>
<path id="Vector 39" d="M125.061 758.81C119.241 756.482 117.444 746.747 120.405 742.515C123.897 736.696 151.241 699.132 155.835 695.559C161.319 691.293 169.29 692.467 175.109 698.286C180.314 703.491 183.257 711.089 183.257 718.073C183.257 725.056 173.946 734.367 170.454 737.859L170.453 737.859C167.66 740.653 152.995 752.99 146.011 758.81C140.968 759.586 129.716 760.672 125.061 758.81Z" fill="#6EC3B3"/>
<path id="Vector 37" d="M83.0576 860.354L67.3635 771.421C66.8232 768.36 69.1785 765.552 72.2875 765.552H167.239C170.417 765.552 172.789 768.479 172.13 771.588L153.297 860.521C152.808 862.832 150.768 864.485 148.406 864.485H87.9815C85.5553 864.485 83.4792 862.744 83.0576 860.354Z" fill="#E2A743"/>
<rect id="Rectangle 62" x="64" y="758.569" width="109.408" height="20.9505" fill="#C0851F"/>
</g>
<g id="Group 26">
<g id="Group 21">
<path id="Vector 59" d="M869.011 764.859L863.181 766.276L864.915 760.708L869.011 764.859Z" fill="black"/>
<rect id="Rectangle 113" x="863.181" y="766.276" width="6" height="87" transform="rotate(-13.6602 863.181 766.276)" fill="#6EC3B3"/>
</g>
<g id="Group 22">
<path id="Vector 59_2" d="M929.295 786.551L924.405 783.075L929.747 780.738L929.295 786.551Z" fill="black"/>
<rect id="Rectangle 113_2" x="924.405" y="783.075" width="6" height="87" transform="rotate(35.4058 924.405 783.075)" fill="#E28243"/>
</g>
<g id="Group 23">
<path id="Vector 59_3" d="M897 782H891L894 777L897 782Z" fill="black"/>
<rect id="Rectangle 113_3" x="891" y="782" width="6" height="81" fill="#C0851F"/>
</g>
<path id="Rectangle 112" d="M868 806C868 804.343 869.343 803 871 803H919C920.657 803 922 804.343 922 806V860C922 861.657 920.657 863 919 863H871C869.343 863 868 861.657 868 860V806Z" fill="#E2A743"/>
</g>
<g id="Group 27">
<g id="desktop">
<g id="Rectangle 8">
<mask id="path-16-inside-1" fill="white">
<path d="M265 399C265 388.507 273.507 380 284 380H795.188C805.681 380 814.188 388.507 814.188 399V740.697C814.188 751.19 805.681 759.697 795.188 759.697H284C273.507 759.697 265 751.19 265 740.697V399Z"/>
</mask>
<path d="M265 399C265 388.507 273.507 380 284 380H795.188C805.681 380 814.188 388.507 814.188 399V740.697C814.188 751.19 805.681 759.697 795.188 759.697H284C273.507 759.697 265 751.19 265 740.697V399Z" fill="#2F292D" stroke="#2F292D" stroke-width="2" mask="url(#path-16-inside-1)"/>
</g>
<rect id="Rectangle 9" x="277.203" y="397.991" width="523.622" height="313.416" fill="#7898C7"/>
<rect id="Rectangle 10" x="277" y="428.45" width="524" height="283" fill="#365C95"/>
<g id="small_window">
<rect id="Rectangle 12" x="622.812" y="474.688" width="126.881" height="214.941" fill="#443947"/>
<rect id="Rectangle 14" x="622.812" y="474.688" width="126.881" height="15.15" fill="#565759"/>
<circle id="Ellipse 6" cx="634.175" cy="482.263" r="4.73438" fill="#C05F1F"/>
<circle id="Ellipse 7" cx="646.484" cy="482.263" r="4.73438" fill="#FFE16B"/>
<circle id="Ellipse 8" cx="658.794" cy="482.263" r="4.73438" fill="#6EC3B3"/>
<g id="short_code">
<rect id="Rectangle 30" x="670.156" y="529.606" width="24.6187" height="5.68125" rx="1" fill="#FFF1BA" fill-opacity="0.8"/>
<rect id="Rectangle 31" x="670.156" y="540.022" width="36.9281" height="5.68125" rx="1" fill="#FFF1BA" fill-opacity="0.8"/>
<rect id="Rectangle 32" x="670.156" y="552.331" width="36.9281" height="5.68125" rx="1" fill="#FFF1BA" fill-opacity="0.8"/>
<rect id="Rectangle 33" x="682.466" y="563.694" width="36.9281" height="5.68125" rx="1" fill="#FFF1BA" fill-opacity="0.8"/>
<rect id="Rectangle 39" x="671.103" y="563.694" width="7.575" height="5.68125" rx="1" fill="#FFF1BA" fill-opacity="0.8"/>
<rect id="Rectangle 42" x="655.953" y="529.606" width="7.575" height="5.68125" rx="1" fill="#FFF1BA" fill-opacity="0.8"/>
<rect id="Rectangle 43" x="655.953" y="540.022" width="7.575" height="5.68125" rx="1" fill="#FFF1BA" fill-opacity="0.8"/>
<rect id="Rectangle 44" x="655.953" y="552.331" width="7.575" height="5.68125" rx="1" fill="#FFF1BA" fill-opacity="0.8"/>
<rect id="Rectangle 40" x="671.103" y="576.003" width="7.575" height="5.68125" rx="1" fill="#FFF1BA" fill-opacity="0.8"/>
<rect id="Rectangle 41" x="671.103" y="589.259" width="7.575" height="5.68125" rx="1" fill="#FFF1BA" fill-opacity="0.8"/>
<rect id="Rectangle 34" x="682.466" y="576.003" width="36.9281" height="5.68125" rx="1" fill="#FFF1BA" fill-opacity="0.8"/>
<rect id="Rectangle 35" x="682.466" y="589.259" width="36.9281" height="5.68125" rx="1" fill="#FFF1BA" fill-opacity="0.8"/>
<rect id="Rectangle 36" x="655.006" y="598.728" width="64.3875" height="5.68125" rx="1" fill="#FFF1BA" fill-opacity="0.8"/>
<rect id="Rectangle 37" x="655.006" y="611.038" width="64.3875" height="5.68125" rx="1" fill="#FFF1BA" fill-opacity="0.8"/>
<rect id="Rectangle 38" x="655.006" y="622.4" width="64.3875" height="5.68125" rx="1" fill="#FFF1BA" fill-opacity="0.8"/>
</g>
</g>
<circle id="Ellipse 2" cx="295.667" cy="413.614" r="7.10156" fill="#365C95"/>
<g id="big_window">
<rect id="Rectangle 11" x="294.247" y="449.122" width="313.416" height="243.347" fill="#42494F"/>
<rect id="Rectangle 13" x="294.247" y="449.122" width="313.416" height="15.15" fill="#565759"/>
<g id="desktop_code">
<rect id="code1" x="321.706" y="510.669" width="72.9094" height="5.68125" rx="1" fill="#FFC86B"/>
<rect id="code4" x="321.706" y="545.703" width="106.05" height="5.68125" rx="1" fill="#E28243"/>
<rect id="code5" x="440.066" y="545.703" width="49.2375" height="5.68125" rx="1" fill="#FFC86B"/>
<rect id="code8" x="431.544" y="561.8" width="71.9625" height="5.68125" rx="1" fill="#E28243"/>
<rect id="code6" x="334.016" y="561.8" width="56.8125" height="5.68125" rx="1" fill="#2B907D"/>
<rect id="code9" x="321.706" y="578.844" width="35.9813" height="5.68125" rx="1" fill="#E28243"/>
<rect id="code10" x="366.209" y="578.844" width="17.9906" height="5.68125" rx="1" fill="#FFC86B"/>
<rect id="code11" x="396.509" y="578.844" width="106.997" height="5.68125" rx="1" fill="#2B907D"/>
<rect id="code13" x="431.544" y="594.941" width="89.0062" height="5.68125" rx="1" fill="#E28243"/>
<rect id="code12" x="321.706" y="594.941" width="95.6344" height="5.68125" rx="1" fill="#FFC86B"/>
<rect id="code14" x="321.706" y="612.931" width="72.9094" height="5.68125" rx="1" fill="#2B907D"/>
<rect id="code15" x="408.819" y="612.931" width="72.9094" height="5.68125" rx="1" fill="#FFC86B"/>
<rect id="code7" x="399.35" y="561.8" width="17.9906" height="5.68125" rx="1" fill="#FFC86B"/>
<rect id="code2" x="321.706" y="528.659" width="40.7156" height="5.68125" rx="1" fill="#2B907D"/>
<rect id="code3" x="371.891" y="528.659" width="18.9375" height="5.68125" rx="1" fill="#2B907D"/>
</g>
<circle id="Ellipse 3" cx="307.503" cy="456.697" r="4.73438" fill="#C05F1F"/>
<circle id="Ellipse 4" cx="319.812" cy="456.697" r="4.73438" fill="#FFE16B"/>
<circle id="Ellipse 5" cx="332.122" cy="456.697" r="4.73438" fill="#6EC3B3"/>
</g>
<path id="Rectangle 45" d="M265 724H814.188V740.981C814.188 751.475 805.681 759.981 795.188 759.981H284C273.507 759.981 265 751.475 265 740.981V724Z" fill="#EDECE8"/>
</g>
<g id="burak">
<path id="neck" d="M470.38 587.791C470.38 582.655 466.644 554.202 464.511 540.606L575.38 530.756C575.291 535.466 572.167 543.557 572.38 546.756C572.647 550.755 568.38 578.791 569.88 587.791C572.163 601.487 575.408 604.852 578.607 610.717C581.166 615.408 587.315 617.825 590.07 618.447C590.781 622.18 589.217 630.497 577.274 633.909C562.346 638.174 543.152 638.707 530.09 637.108C519.64 635.828 476.152 628.577 455.714 625.112C456.603 623.068 458.38 620.256 461.312 615.782C463.691 612.152 462.615 613.82 466.88 604.756C468.484 601.348 470.38 595.256 470.38 587.791Z" fill="#F4AE96"/>
<path id="body" d="M602.481 620.58C599.626 619.2 597.771 613.471 596.883 611.25C586.486 615.248 562.707 623.832 550.764 626.178C535.836 629.111 519.308 631.51 506.512 629.91C493.716 628.311 483.053 626.178 476.122 623.246C470.577 620.9 455.507 615.87 448.665 613.649C445.554 617.825 439.49 624.1 436.935 626.178C434.38 628.256 423.606 631.776 415.342 634.975C407.078 638.174 387.618 641.906 364.425 647.505C341.233 653.103 330.303 660.567 316.441 669.631C302.579 678.694 290.245 702.807 284.38 715.256C278.174 728.429 260.904 768.798 254.861 791.724C252.462 810.74 247.237 850.318 245.531 856.503C243.398 864.234 243.583 882.5 245.531 890.625C247.582 899.18 258.06 922.348 265.791 928.479C273.522 934.611 280.186 936.477 284.985 936.743L284.986 936.743C289.79 937.01 316.585 938.499 331.636 928.479C337.917 924.299 351.717 908.032 353.583 903.5C355.076 899.875 360.249 876.23 362.026 863.967C365.136 871.609 371.516 888.332 372.156 894.091C372.796 899.849 379.887 938.787 383.353 957.536L684.321 945.274C682.721 936.21 684.321 919.949 684.321 912.751C684.321 906.993 690.186 883.872 693.118 873.031C694.007 873.742 696.477 876.496 699.249 881.828C702.715 888.492 715.511 898.089 721.909 903.954C728.306 909.819 751.45 914.756 762.38 914.756C773.31 914.756 793.012 915.417 801.38 912.751C809.291 910.231 816.914 905.422 820.38 902.756C823.845 900.09 830.939 884.227 833.872 875.163C836.804 866.1 837.604 851.438 833.872 839.708C830.14 827.979 815.211 792.524 812.279 779.195C809.347 765.866 799.88 737.256 793.88 727.256C788.477 718.251 738.912 659.288 734.38 654.756C729.848 650.224 712.045 638.707 704.314 635.508C696.583 632.31 668.859 629.91 658.463 629.91C648.066 629.91 644.6 629.91 639.269 626.178C633.937 622.446 629.405 620.58 616.876 620.58C604.347 620.58 603.88 621.256 602.481 620.58Z" fill="#3D3D3D"/>
<g id="head_withEar">
<path id="left_ear" d="M434.932 475.561C436.425 472.362 439.997 470.14 441.597 469.429C451.816 487.735 471.72 526.104 469.588 533.142C466.922 541.939 457.058 537.674 455.992 536.874C455.139 536.234 451.371 530.21 449.594 527.277C445.773 520.168 437.705 505.258 435.999 502.485C433.866 499.02 432 493.688 432 490.489C432 487.29 433.066 479.559 434.932 475.561Z" fill="#F7B996"/>
<path id="right_ear" d="M604.814 475.888C603.321 472.689 599.749 470.467 598.149 469.756C587.931 488.061 568.026 526.431 570.159 533.469C572.824 542.266 582.688 538.001 583.754 537.201C584.607 536.561 588.375 530.536 590.152 527.604C593.973 520.495 602.042 505.585 603.748 502.812C605.88 499.347 607.746 494.015 607.746 490.816C607.746 487.617 606.68 479.886 604.814 475.888Z" fill="#F7B996"/>
<g id="head">
<path id="hair" d="M488.331 571.413C483.418 569.66 472.939 564.239 468.625 556.239C461.684 543.366 454.881 525.46 452.745 519.983C450.075 513.136 438.674 488.152 435.738 477.744C432.801 467.337 432 444.878 432 433.649C432 422.42 437.585 403.337 441.125 396.239C444.126 390.221 459.625 360.739 496.34 351.483C520.189 345.471 546.263 351.483 561.48 357.783C576.698 364.082 597.131 389.889 601.125 398.739C607.799 413.529 609.369 445.739 605.53 470.35C603.395 484.044 589.415 512.779 586.745 517.983C584.075 523.187 574.829 544.846 567.354 555.254C561.978 562.739 558.125 564.84 552.403 567.579C541.625 572.739 523.357 573.878 518.231 573.878C511.824 573.878 494.471 573.604 488.331 571.413Z" fill="#2F292D"/>
<path id="front_Hair" d="M569.835 340C540.38 349.256 522.055 345.495 504.38 349.756C534.049 364.906 601.38 409.756 603.38 407.756C606.058 405.078 589.38 361.256 569.835 340Z" fill="#2F292D"/>
</g>
</g>
</g>
<path id="chair_round" d="M742 965H338L352.766 843.242C357.964 783.663 392.93 748.672 424.825 731.531C475.62 696.658 607.924 704.933 657.538 727.984C702.427 748.84 721.918 810.142 727.825 839.104C731.605 863.692 738.85 933.28 742 965Z" fill="#CCA177"/>
</g>
<g id="clouds">
<path id="cloud1" d="M629.65 40.7486C593.537 42.0486 574.836 60.7912 570 70H915C900.813 53.0993 868.248 55.3742 853.738 58.6243C842.131 32.623 808.061 31.5397 792.477 34.2483C720.252 -30.7549 653.832 11.4971 629.65 40.7486Z" fill="#FFE6BA" fill-opacity="0.55"/>
<path id="cloud2" d="M114.322 97.9419C89.3056 98.8334 76.3505 111.685 73 118H312C302.172 106.411 279.612 107.971 269.561 110.199C261.52 92.3701 237.917 91.6272 227.122 93.4845C177.088 48.9109 131.075 77.8838 114.322 97.9419Z" fill="#FFE6BA" fill-opacity="0.55"/>
<path id="cloud3" d="M556.799 206.046C540.575 206.622 532.173 214.922 530 219H685C678.626 211.515 663.995 212.523 657.477 213.962C652.262 202.447 636.955 201.968 629.953 203.167C597.505 174.38 567.664 193.092 556.799 206.046Z" fill="#FFE6BA" fill-opacity="0.55"/>
</g>
</g>
</svg>
